<svg xmlns="http://www.w3.org/2000/svg" width="26" height="26" viewBox="0 0 26 26">
    <g fill="#394878" fill-rule="nonzero">
        <path d="M16.475 4.341l-.093-.396a1.485 1.485 0 0 0-1.78-1.093l-6.566 1.49h8.44zM1.147 4.39v-.002l13.111-2.999c1.622-.367 3.24.626 3.614 2.219l.173.734h4.896c.845 0 1.53.673 1.53 1.503v6.01h-1.53v4.507l1.53.536v5.473c0 .83-.685 1.503-1.53 1.503H1.53C.685 23.873 0 23.2 0 22.37V5.844c0-.7.487-1.288 1.147-1.455zm21.794 7.464v-6.01H1.53V22.37h21.412V11.853z"/>
        <path d="M20.647 12.98a.758.758 0 0 0-.765.752v1.502c0 .415.343.752.765.752h3.059a.758.758 0 0 0 .765-.752v-1.502a.758.758 0 0 0-.765-.751h-3.059zm0-1.502h3.059c1.267 0 2.294 1.01 2.294 2.254v1.502c0 1.245-1.027 2.254-2.294 2.254h-3.059c-1.267 0-2.294-1.009-2.294-2.254v-1.502c0-1.245 1.027-2.254 2.294-2.254z"/>
    </g>
</svg>
