<svg xmlns="http://www.w3.org/2000/svg" xmlns:xlink="http://www.w3.org/1999/xlink" width="418" height="225" viewBox="0 0 418 225">
    <defs>
        <linearGradient id="a" x1="25.496%" x2="131.16%" y1="63.434%" y2="63.434%">
            <stop offset="0%" stop-color="#EAAB95"/>
            <stop offset="100%" stop-color="#DF9A81"/>
        </linearGradient>
        <path id="b" d="M52.116 10.104c8.679 10.882-10.32 26.069 7.533 32.742 11.902 4.448 15.308 17.798 10.216 40.05-2.466 6.454-16.897 6.946-43.293 1.476-8.087-1.676-18.82-6.236-21.707-12.782C-5.619 47.818 20.297 7.645 21.771 5.533c1.881-2.694 21.666-6.31 30.345 4.571z"/>
        <path id="d" d="M47.84 7.182c1.436.561 1.237 3.397 2.135 4.045 5.696 4.112 3.825 7.292.369 13.199-3.195 5.461-5.382 10.385 1.01 15.644C65.805 51.962 72.3 65.467 70.84 80.585c-21.412 7.713-39.51 7.173-54.298-1.622-22.181-13.192-12.118-67.71-6.306-72.412 5.813-4.702 18.645-6.784 37.604.63z"/>
        <linearGradient id="f" x1="35.685%" x2="104.206%" y1="53.489%" y2="64.376%">
            <stop offset="0%" stop-color="#A67868"/>
            <stop offset="100%" stop-color="#936454"/>
        </linearGradient>
    </defs>
    <g fill="none" fill-rule="evenodd">
        <path fill="#DFE7F2" d="M145.88 183.955c-60.001 3.104-90.324-16.772-90.969-59.628-.745-49.475 18.713-83.879 56.138-103.206 13.28-6.121 18.462-9.6 40.531-14.237C173.65 2.248 190.807.226 207.402.818c18.52-.592 40.094 1.43 64.721 6.066 8.962 1.687 17.217 3.832 24.766 6.435 51.224 16.737 76.836 53.136 76.836 109.196 0 41.33-75.948 61.81-227.846 61.44z"/>
        <path fill="#BCCBDA" fill-rule="nonzero" d="M28.668 87.54c-4.493-4.874-10.066-11.311-17.983-10.92-8.201.405-11.475.255-9.706 3.304 8.29 14.291 17.7 11.091 28.408 9.751 2.74 7.914 6.13 15.317 10.17 22.21-5.63-4.06-12.375-8.214-19.292-5.13-8.753 3.904-12.993 3.323-10.31 6.342 12.055 13.559 21.736 8.485 32.978 4.2a114.115 114.115 0 0 0 15.55 18.76c-6.118-1.943-12.901-3.175-18.074 1.328-3.04 2.647-11.44 6.964-7.99 9.071 15.09 9.215 22.846 2.183 31.999-5 17.06 14.5 39.105 25.056 66.116 31.648a1.62 1.62 0 1 0 .768-3.148c-35.432-8.647-62.06-24.155-79.93-46.565 3.821-4.427 9.83-10.2 7.482-16.917-1.018-2.912-1.695-10.094-4.18-8.261-9.56 7.048-8.547 13.706-6.46 21.02-4.817-6.663-8.915-13.893-12.295-21.69 6.758-2.983 16.207-6.47 17.083-15.197.393-3.904 3.472-12.546-.377-11.77-15.25 3.075-17.353 11.699-18.88 21.612-2.552-6.723-4.603-13.843-6.155-21.359 2.096-7.487 4.15-18.113-1.503-26.303-2.761-4-6.5-9.247-8.359-5.876-8.84 16.036-1.146 23.541 6.672 32.754a146.937 146.937 0 0 0 4.268 16.137zM390.04 89.8c-2.575 7.413-5.721 14.378-9.438 20.894 5.266-3.614 11.365-6.72 17.604-3.938 3.687 1.644 12.993 3.322 10.31 6.34-11.77 13.238-21.276 8.716-32.182 4.508a114.08 114.08 0 0 1-14.896 18.011c5.722-1.659 11.857-2.38 16.623 1.77 3.041 2.647 11.442 6.964 7.991 9.071-14.804 9.04-22.55 2.443-31.481-4.593a127.639 127.639 0 0 1-14.626 10.6c6.183.009 12.623.977 16.103 6.557 2.133 3.42 8.903 10.004 4.988 11.011-16.592 4.266-22.14-4.043-28.518-13.247-12.706 6.889-27.234 12.33-43.58 16.32a1.62 1.62 0 1 1-.769-3.148c15.94-3.89 30.096-9.168 42.476-15.839-.16-.225-.323-.45-.487-.674l1.802-.74c.428-.009.866-.022 1.314-.038 6.781-3.842 13.007-8.12 18.677-12.833a95.973 95.973 0 0 0-.282-.212l1.507-1.235c.259-.085.52-.173.786-.263a113.938 113.938 0 0 0 7.726-7.38l-1.162-.604c-5.054-5.759-13.595-13.337-10.593-22.427 1.265-3.828 1.99-13.228 5.277-10.892 15.09 10.723 10.505 21.07 7.36 32.985 8.64-9.282 15.575-19.905 20.812-31.872-7.137-2.569-17.036-5.472-18.557-14.336-.682-3.973-4.457-12.61-.456-12.091 16.205 2.105 18.742 11.14 21.052 21.478 2.692-6.953 4.845-14.334 6.458-22.142-2.084-7.171-4.043-14.316.232-24.353 1.272-2.988 7.6-11.42 9.632-7.838 8.996 15.859 1.165 23.519-6.672 32.754a148.078 148.078 0 0 1-3.733 14.469c4.035-4.351 8.655-8.78 16.448-9.253 3.413-.208 11.474.255 9.706 3.304-8.042 13.864-17.138 11.267-27.452 9.876z"/>
        <g transform="translate(89.279 50.284)">
            <rect width="239" height="160.614" x="1" y="1.537" fill="#D6E0F5" rx="6"/>
            <rect width="239" height="160" x=".5" fill="#FFF" rx="6"/>
            <path fill="#AEBBE1" d="M6.5 0h48v160h-48a6 6 0 0 1-6-6V6a6 6 0 0 1 6-6z"/>
            <path fill="#E6E9F4" d="M68.54 11.996h69.92a3.04 3.04 0 1 1 0 6.08H68.54a3.04 3.04 0 1 1 0-6.08zm-.38 13.68h19.76a2.66 2.66 0 0 1 0 5.32H68.16a2.66 2.66 0 1 1 0-5.32zm28.88 0h19.76a2.66 2.66 0 0 1 0 5.32H97.04a2.66 2.66 0 1 1 0-5.32z"/>
            <path fill="#9FACD1" d="M13.54 11.996h27.92a3.04 3.04 0 0 1 0 6.08H13.54a3.04 3.04 0 1 1 0-6.08zm0 12.92h27.92a3.04 3.04 0 0 1 0 6.08H13.54a3.04 3.04 0 1 1 0-6.08z"/>
            <path fill="#F1F4FA" d="M68.5 43.996h74a3 3 0 0 1 3 3v45a3 3 0 0 1-3 3h-74a3 3 0 0 1-3-3v-45a3 3 0 0 1 3-3zm0 54h74a3 3 0 0 1 3 3v45a3 3 0 0 1-3 3h-74a3 3 0 0 1-3-3v-45a3 3 0 0 1 3-3zm83 0h74a3 3 0 0 1 3 3v45a3 3 0 0 1-3 3h-74a3 3 0 0 1-3-3v-45a3 3 0 0 1 3-3z"/>
            <rect width="80" height="51" x="148.5" y="43.996" fill="#D6E0F5" rx="3"/>
        </g>
        <path fill="#EAAB95" d="M272.299 144.745c-2.704-10.862-5.631-17.178-8.782-18.946-3.15-1.768-3.068.446.247 6.645-3.092 4.007-3.187 8.108-.286 12.301 2.902 4.194 5.842 4.194 8.82 0zM341.38 140.05c-.541 2.78-2.304 6.243-5.288 10.39-10.936 15.195 28.187 3.989 28.187 1.916 0-.874-1.334-5.346-4.002-13.415a22.068 22.068 0 0 0 5.502-3.662l-8.5-37.61c-9.374 5.668-15.207 7.668-17.5 6-2.293-1.666-8.519-2.666-18.677-3-2.238 21.196 2.88 33.86 15.354 37.991a54.867 54.867 0 0 0 4.924 1.39z"/>
        <path fill="#E39C84" d="M350.83 125.033c-1.394 1.396-2.909 2.312-4.543 2.746-2.453.652 12.27 1.653 10.516 9.376-1.17 5.149-.074 2.677 3.286-7.415l-1.81-4.56-7.45-.147z"/>
        <path fill="url(#a)" d="M43.935 14.82c2.343 1.698 3.515 3.28 3.515 4.75 0 1.47-1.33 2.72-3.992 3.75l-.975-5.036.975-3.463h.477z" transform="matrix(-1 0 0 1 366.279 97.28)"/>
        <g transform="matrix(-1 0 0 1 382.279 137.28)">
            <mask id="c" fill="#fff">
                <use xlink:href="#b"/>
            </mask>
            <use fill="#7EB68B" transform="rotate(-3 37.264 45.429)" xlink:href="#b"/>
            <path fill="#72A77F" d="M74.684 61.363l-27.405-.448C59.548 74.106 68.683 79.458 74.684 76.97c6-2.488 6-7.69 0-15.607z" mask="url(#c)"/>
        </g>
        <path fill="#7EB68B" d="M282.83 193.776c1.93 1.008 4.323 1.92 7.163 2.734 10.812 3.103 30.644 5.2 59.496 6.293 18.124-28.733 22.721-45.241 13.79-49.524-4.596-2.204-16.017-15.04-25.848-10.5-16.955 7.83-35.07 20.584-46.09 28.2-7.035-6.622-13.304-15.425-18.808-26.408l-7.78 1.737c2 23.724 3.167 31.924 11.484 42.59 1.393 1.787 4.388 3.9 6.594 4.878z"/>
        <path fill="#7D5A57" d="M350.397 127.18c3.334 5.29 7.784 7.424 6.382 24.6-.023.275-.076.625-.095.894-.024.329-.148.968-.22 1.454-5.41 30.558 4.916 46.092 19.536 47.151 5.248.38 6.598-.208 11.401-1.714 6.3-1.867 12.872-6.52 17.878-20.286 8-22-11.235-37.5-16.735-44-3.33-3.934-3.469-5.337-5.02-16.69-.01-.076-.366-7.036-.467-8.396-1.191-21.528-23.527-31.914-37.778-31.914-15.634 0-22.5 3.58-27 10.5-2.993 4.602-1.993 9.267 3 13.996 7.232 6.042 15.9 10.89 26.004 14.546.48 4.79 1.696 7.61 3.114 9.859z"/>
        <path fill="#EAAB95" d="M345.877 116.268c2.353-3.237 6.35-5.378 8.195-1.154 1.846 4.224-4.24 13.866-9.02 12.404-4.782-1.462-1.53-8.013.825-11.25z"/>
        <g>
            <path fill="#A67868" d="M105.467 151.244c3.187 9.739-30.188 2.074-30.188-.086 0-1.44-.667-9.457-2-24.05l1.078.192a123.184 123.184 0 0 1-1.578-3.02c-3.995-7.865-1.495-18.068 7.5-30.61 9.374 5.667 15.207 7.667 17.5 6 2.293-1.667 8.519-2.667 18.677-3 2.155 20.407-2.51 32.905-13.993 37.494.088 5.54 1.09 11.234 3.004 17.08z"/>
            <path fill="#9A6D5D" d="M85.592 114.43l3.398 3.469-7.767 6.208z"/>
            <path fill="#A263A3" d="M73.452 136.617c5.396-2.674 21.974-1.326 28.474 2.674 4.334 2.666 8.097 8.258 11.289 16.776l-47.905-2.228c1.83-9.699 4.544-15.44 8.142-17.222z"/>
            <g transform="translate(59.279 138.28)">
                <mask id="e" fill="#fff">
                    <use xlink:href="#d"/>
                </mask>
                <use fill="#BE7CBF" transform="rotate(-3 36.944 44.149)" xlink:href="#d"/>
                <path fill="#AE71AF" d="M71.105 70.914c-13.142-2.746-22.006-9.878-26.592-21.396-6.88-17.276-21.26 11.55-7.661 19.377 15.01 8.638 14.737 21.746 19.498 19.9 4.118-1.595 18.104-4.88 19.722-8.526.384-.863-1.272-3.981-4.967-9.355z" mask="url(#e)"/>
            </g>
            <path fill="#BE7CBF" d="M103.267 144.55c14.653 1.73 30.082 37.246 42.572 51.723 12.49 14.476 8.902 21.596-7.968 21.894-11.247.198-29.778-8.651-55.592-26.549 4.223-32.53 11.22-48.22 20.988-47.067z"/>
            <path fill="#675250" d="M110.845 81.354c10.69.493 15.462 3.023 14.318 7.593-1.722 6.872-14.598 16.461-20.088 15.103-1.641-.406-2.463-2.113-2.065-5.174-2.948 6.699-8.551 11.389-16.81 14.07-.002.58-.1 1.136-.346 1.654-.912 1.922.389 6.732-3.981 10.79-1.018.944-11.736 5.909-12.435.144-.911-7.523-9.1-7.857-10.659-19.434-2.333-17.333 6.293-28.052 25.879-32.157l.01.003c9.682-2.085 18.408.385 26.177 7.408z"/>
            <path fill="url(#f)" d="M56.451 38c2.731 1.889 4.096 3.568 4.096 5.037 0 1.47-1.524 2.623-4.572 3.463L55 41.463 55.975 38h.476z" transform="rotate(25 -76.102 209.83)"/>
            <path fill="#A67868" d="M91.524 107.419c7.755 5.748 6.44 9.262 1.803 11.135-4.636 1.873-11.538-7.202-10.068-11.57.98-2.913 3.736-2.768 8.265.435z"/>
            <path fill="#9B6C5C" d="M148.33 193.057c1.33 1.072 2.925 3.395 3.092 7.522.07 4.121-2.478 4.935-3.071 4.08-.577-.832-.427-3.693-.145-4.563-.15.462-1.6 3.786-2.682 3.064-1.08-.722-.85-2.656-.667-3.59.183-.934 1.219-3.292.897-2.76-2.111 3.49-4.4 3.942-3.827.121.102-.684.227-1.276.368-1.788-3.064 2.035-5.062 1.457-3.132-1.688 3.402-5.543 8.64-.912 9.158-.407a.157.157 0 0 1 .008.009z"/>
        </g>
    </g>
</svg>
