<svg xmlns="http://www.w3.org/2000/svg" width="100" height="100" viewBox="0 0 100 100">
    <g fill="none" fill-rule="evenodd">
        <path fill="#3C92E4" fill-rule="nonzero" d="M23 30.759v-8.444c0-.654.438-1.228 1.07-1.4 9.79-2.675 18.847-6.506 27.69-11.713a1.458 1.458 0 0 1 1.48 0c8.596 5.061 18.17 9.112 27.69 11.713.632.172 1.07.746 1.07 1.4v14.83c0 15.272-7.064 25.381-12.99 31.172a45.798 45.798 0 0 1-7.007 5.605 8.553 8.553 0 0 0-1.316-2.607c2-1.32 4.168-3.001 6.286-5.072C72.501 60.842 79.09 51.41 79.09 37.145v-13.73c-9.137-2.596-18.29-6.48-26.588-11.282-8.511 4.933-17.23 8.633-26.59 11.283v8.017A19.98 19.98 0 0 0 23 30.76z"/>
        <path fill="#3C92E4" fill-rule="nonzero" d="M29.98 33.223V27.64c0-.5.334-.939.818-1.071 7.48-2.046 14.4-4.977 21.158-8.96a1.113 1.113 0 0 1 1.13 0c6.568 3.872 13.884 6.97 21.158 8.96.483.132.818.57.818 1.07v11.345c0 11.682-5.398 19.414-9.926 23.844-2.526 2.472-5.268 4.37-7.611 5.627l-2.32-1.812c2.122-1.007 5.109-2.868 7.972-5.705 4.08-4.04 8.941-11.094 8.941-21.761V28.909c-6.742-1.942-13.496-4.846-19.62-8.438-6.28 3.69-12.713 6.456-19.62 8.439v6.354a20.278 20.278 0 0 0-2.899-2.041z"/>
        <path stroke="#3C92E4" stroke-width="3" d="M35.2 67.74l-5.548-4.334c-5.672 4.316-13.747 4.46-19.628-.135-6.996-5.466-8.237-15.57-2.77-22.567 5.466-6.997 15.57-8.237 22.566-2.77 5.597 4.372 7.511 11.713 5.254 18.056l21.54 16.829a4.59 4.59 0 1 1-5.653 7.235l-8.526-6.662-3.673 4.701a4.59 4.59 0 0 1-7.235-5.652L35.2 67.74zM14.898 57.22A8.193 8.193 0 1 0 24.987 44.31a8.193 8.193 0 0 0-10.089 12.912z"/>
        <path fill="#3C92E4" d="M50.5 44.599a3 3 0 1 1 3 0V48.5a1.5 1.5 0 0 1-3 0v-3.901z"/>
    </g>
</svg>
