<svg xmlns="http://www.w3.org/2000/svg" width="340" height="190" viewBox="0 0 340 190">
    <defs>
        <radialGradient id="a" cy="0%" r="79.009%" fx="50%" fy="0%" gradientTransform="matrix(0 1 -.86637 0 .5 -.5)">
            <stop offset="0%" stop-color="#B9CADE"/>
            <stop offset="100%" stop-color="#EAEFF5"/>
        </radialGradient>
        <linearGradient id="b" x1="119.772%" x2="50%" y1="56.887%" y2="62.179%">
            <stop offset="0%" stop-color="#8694C0"/>
            <stop offset="100%" stop-color="#AAB4D5"/>
        </linearGradient>
    </defs>
    <g fill="none" fill-rule="evenodd">
        <path stroke="#D1DBE5" stroke-linecap="round" stroke-linejoin="round" stroke-width="2" d="M14.605 45c3.221 24.934 23.948 50.106 62.18 75.517 12.9 7.944 19.236 17.825 19.006 29.644"/>
        <path fill="#D1DBE5" d="M16.713 56.648c-4.77-6.552-10.476-11.532-3.988-21.714 1.367-2.145 4.016 3.192 5.66 5.138 3.906 4.618.712 11.075-.876 15.643l-.796.933zM25.06 70.857c-1.51-7.77-4.499-14.533 5.46-20.883 2.097-1.338 2.232 4.483 2.882 6.884 1.544 5.701-3.955 10.107-7.251 13.5l-1.091.5zM38.06 87.857c-1.51-7.77-4.499-14.533 5.46-20.883 2.097-1.338 2.232 4.483 2.882 6.884 1.544 5.701-3.955 10.107-7.251 13.5l-1.091.5zM32.316 82.445c-7.57 2.313-13.984 5.994-21.34-3.246-1.55-1.947 4.225-2.689 6.545-3.587 5.509-2.132 10.465 2.877 14.184 5.8l.61 1.033zM44.28 93.485c-6.562 4.425-11.62 9.82-21.355 3.135-2.051-1.409 3.254-3.807 5.21-5.344 4.645-3.65 10.849-.309 15.26 1.4l.886.81zM56.388 106.112c-6.714 4.193-11.956 9.408-21.453 2.387-2-1.479 3.385-3.69 5.394-5.159 4.769-3.484 10.853.07 15.202 1.932l.857.84zM22.316 65.445C14.746 67.758 8.332 71.44.976 62.2c-1.55-1.947 4.225-2.689 6.545-3.587 5.509-2.132 10.465 2.877 14.184 5.8l.61 1.033z"/>
        <g>
            <path stroke="#D1DBE5" stroke-linecap="round" stroke-linejoin="round" stroke-width="2" d="M321.5 46c-1.068 25.016-19.526 51.812-55.374 80.387-4.591 5.674-7.536 10.3-8.835 13.88"/>
            <path fill="#D1DBE5" d="M320.347 57.94c4.18-6.942 9.431-12.4 2.08-21.979-1.549-2.017-3.722 3.53-5.191 5.612-3.488 4.941.256 11.095 2.237 15.507l.874.86zM314.099 76.292c.826-7.872 3.215-14.87-7.259-20.328-2.206-1.15-1.833 4.66-2.272 7.11-1.041 5.813 4.82 9.723 8.4 12.816l1.13.402zM302.099 90.292c.826-7.872 3.215-14.87-7.259-20.328-2.206-1.15-1.833 4.66-2.272 7.11-1.041 5.813 4.82 9.723 8.4 12.816l1.13.402zM289.445 105.316c2.313-7.57 5.994-13.984-3.246-21.34-1.947-1.55-2.689 4.225-3.587 6.545-2.132 5.509 2.877 10.465 5.8 14.184l1.033.61zM276.91 118.414c2.576-7.484 6.478-13.766-2.5-21.44-1.89-1.616-2.834 4.13-3.812 6.417-2.323 5.43 2.51 10.558 5.302 14.377l1.01.646zM308.346 83.714c7.743 1.645 14.453 4.752 20.975-5.094 1.374-2.074-4.443-2.31-6.833-3.002-5.673-1.644-10.174 3.778-13.624 7.014l-.518 1.082zM297.222 96.033c6.924 3.836 12.433 8.77 21.549 1.261 1.92-1.582-3.574-3.508-5.657-4.87-4.945-3.23-10.834.639-15.08 2.726l-.812.883zM286.238 109.633c7.053 3.593 12.73 8.33 21.58.509 1.863-1.648-3.695-3.382-5.824-4.67-5.054-3.055-10.805 1.017-14.975 3.25l-.78.911zM316.346 66.714c7.743 1.645 14.453 4.752 20.975-5.094 1.374-2.074-4.443-2.31-6.833-3.002-5.673-1.644-10.174 3.778-13.624 7.014l-.518 1.082z"/>
        </g>
        <g transform="translate(15)">
            <path fill="#DFE9F2" d="M261.305 2C264.45 2 267 4.84 267 8.342v149.316c0 3.503-2.55 6.342-5.695 6.342H48.695C45.55 164 43 161.16 43 157.658V8.342C43 4.839 45.55 2 48.695 2h212.61z"/>
            <path fill="#FFF" d="M259.332 1C262.462 1 265 3.86 265 7.386v148.228c0 3.527-2.538 6.386-5.668 6.386H49.668c-3.13 0-5.668-2.86-5.668-6.386V7.386C44 3.859 46.538 1 49.668 1h209.664z"/>
            <path fill="#E6EDF3" d="M132.406 20c1.433 0 2.594 1.343 2.594 3s-1.161 3-2.594 3H65.594C64.16 26 63 24.657 63 23s1.161-3 2.594-3h66.812z" opacity=".6"/>
            <path fill="#DCE5EF" d="M243.708 110c1.266 0 2.292 1.12 2.292 2.5s-1.026 2.5-2.292 2.5H65.292c-1.266 0-2.292-1.12-2.292-2.5s1.026-2.5 2.292-2.5h178.416zM243.708 122c1.266 0 2.292 1.12 2.292 2.5s-1.026 2.5-2.292 2.5H65.292c-1.266 0-2.292-1.12-2.292-2.5s1.026-2.5 2.292-2.5h178.416zM243.708 133c1.266 0 2.292 1.12 2.292 2.5s-1.026 2.5-2.292 2.5H65.292c-1.266 0-2.292-1.12-2.292-2.5s1.026-2.5 2.292-2.5h178.416z" opacity=".6"/>
            <path fill="#E89F9F" d="M213 41h-31c-6.627 0-12 5.373-12 12v29c0 6.627 5.373 12 12 12h31c6.627 0 12-5.373 12-12V53c0-6.627-5.373-12-12-12z" opacity=".6"/>
            <g stroke="#FFF" stroke-linecap="round" stroke-linejoin="round" stroke-width="5">
                <path d="M186 57l22.368 22.48M208 57l-22.368 22.48"/>
            </g>
            <g transform="translate(83 41)">
                <path fill="#D7E7F0" d="M43 0H12C5.373 0 0 5.373 0 12v29c0 6.627 5.373 12 12 12h31c6.627 0 12-5.373 12-12V12c0-6.627-5.373-12-12-12z"/>
                <circle cx="28" cy="26" r="11" stroke="#FFF" stroke-width="5"/>
            </g>
            <ellipse cx="34.5" cy="184.5" fill="url(#a)" rx="33.5" ry="5.5"/>
            <g>
                <path fill="#B3C1EE" d="M22.223 165.423l2.155 13.607h2.959L28.423 163zM38.174 166.206l1.678 13.673 2.994-.368L44.455 164z"/>
                <path fill="#536290" d="M31.001 180.904l.014.005a3.862 3.862 0 0 1-.034.024c-.073.104-.176.21-.309.321l-.328.052c-1.142.552-2.768.81-4.876.776l-.668.106c-.835-.94-.91-1.932-.224-2.974l2.688-.001c3.003.345 4.249.91 3.737 1.691zM46.001 180.904l.014.005a3.86 3.86 0 0 1-.034.024c-.073.104-.176.21-.309.321l-.328.052c-1.142.552-2.768.81-4.876.776l-.668.106c-.835-.94-.91-1.932-.224-2.974l2.688-.001c3.003.345 4.249.91 3.737 1.691z"/>
                <path fill="#AAB4D5" d="M35.928 120.488c-1.248 26.762-3.357 43.407-6.328 49.935-.88.971-1.748 1.457-2.608 1.457-1.457 0-2.858-.372-4.2-1.971-3.185-3.796-15.14-67.353 7.196-69.44 14.891-1.391 16.871 5.282 5.94 20.02z"/>
                <path fill="#AAB4D5" d="M44.887 106.254c8.898 15.51 8.774 37.283-.37 65.317-1.522 2.034-3.62 2.142-6.293.322-4.01-2.728-11.736-37.51-11.992-52.16-.17-9.766 6.048-14.26 18.655-13.479z"/>
                <path fill="url(#b)" d="M10.645 32.644c1.639.029 7.084 6.927 6.774 24.607-.071 4.058-8.413-24.635-6.774-24.607z" transform="rotate(-1 5717.135 -752.289)"/>
                <path fill="#B3C1EE" d="M73 69.615c2.204-4.443 4.163-6.935 5.878-7.475 1.715-.54 1.464.487-.755 3.083 1.136 2.154.791 4.08-1.033 5.777-1.824 1.696-3.188 1.235-4.09-1.385zM41.6 46.068c1.411 11.133-.913 17.692-6.971 19.675-6.059 1.983-9.269 1.62-9.629-1.091l4.913-18.584L38.629 43l2.971 3.068z"/>
                <path fill="#B3C1EE" d="M37.121 62.36c-3.535.956-3.535 3.898 0 8.826C42.423 78.58 22 73.126 22 72.12c0-.673 1.614-5.712 4.843-15.119l10.278 5.36z"/>
                <path fill="#8694C0" d="M37.037 72.44c9.352 3.105-5.688 7.957 1.875 12.565 5.042 3.071 7.567 9.519 7.574 19.341-.806 5.267-7.284 6.658-19.432 4.174-18.222-3.727-5.643-36.172-4.802-37.522.84-1.35 5.432-1.664 14.785 1.442z"/>
                <path fill="#8694C0" d="M22.764 69.915c5.99-3.984 30.541 8.557 38.845 12.647 8.304 4.09 8.052 7.943.59 11.268-4.973 2.216-14.339 4.559-28.096 7.028C22.551 82.885 18.772 72.57 22.764 69.915z"/>
                <path fill="#8694C0" d="M66.882 90.928C71.85 86.585 73.838 82.635 77 71.436L72.774 70c-3.928 5.116-8.045 8.939-12.35 11.47-6.46 3.796 1.489 13.8 6.458 9.458z"/>
                <g fill="#536290">
                    <path d="M44.993 43.622c.143 2.819-1.919 3.853-8.256 3.853-4.225 0-6.387 2.555-6.486 7.664C30.748 62.38 29.428 66 26.29 66 21.587 66 15 60.155 15 51.996c0-5.44 2.15-10.1 6.451-13.982 5.208-3.312 10.114-3.894 14.717-1.748 6.906 3.22 8.682 4.538 8.825 7.356z"/>
                    <path d="M33 35.376c-6.765-1.34-12.221.904-16.37 6.735-4.148 5.83-3.39 12.46 2.278 19.889l7.732-17.624 6.36-9z"/>
                    <path d="M28 64.945c-3.675 2.74-9.447 2.74-17.315 0-7.87-2.74-8.79-5.801-2.766-9.186 2.871-2 4.962-5.407 6.274-10.22 1.312-4.812 5.914 1.657 13.807 19.406z"/>
                </g>
            </g>
        </g>
    </g>
</svg>
