<svg xmlns="http://www.w3.org/2000/svg" xmlns:xlink="http://www.w3.org/1999/xlink" width="62" height="12" viewBox="0 0 62 12">
    <defs>
        <path id="a" d="M0 11.578h61.874V0H0z"/>
    </defs>
    <g fill="none" fill-rule="evenodd">
        <path fill="#85A9E0" d="M18.698 8.488c0 1.28-1.04 1.919-3.123 1.919-2.105 0-3.158-.64-3.158-1.919V3.193c0-.423.087-.774.262-1.054.174-.28.419-.491.733-.634.313-.142.64-.24.977-.29a7.69 7.69 0 0 1 1.169-.079c2.093 0 3.14.686 3.14 2.057v5.295zM15.54.057c-3.164 0-4.745 1.062-4.745 3.187v5.26c0 2.012 1.58 3.017 4.745 3.017.582 0 1.123-.04 1.622-.12.501-.08 1.007-.22 1.519-.42.512-.2.916-.51 1.213-.933.296-.423.444-.938.444-1.544V3.227c0-2.114-1.6-3.17-4.798-3.17zM27.32 4.975h-1.36c-.71 0-1.204-.088-1.484-.266-.279-.177-.419-.46-.419-.848V2.593c0-.502.177-.86.533-1.071.354-.211 1.072-.317 2.155-.317.732 0 1.744.097 3.035.291V.246a26.735 26.735 0 0 0-2.913-.189c-1.699 0-2.865.21-3.5.634-.633.422-.95 1.074-.95 1.953v.891c0 .88.224 1.546.672 1.996.448.452 1.242.677 2.382.677h1.326c.71 0 1.2.101 1.474.3.274.2.41.535.41 1.003v1.44c0 .536-.212.893-.637 1.07-.424.177-1.038.266-1.84.266-1.001 0-2.188-.142-3.56-.428v1.388c1.372.183 2.524.274 3.454.274 1.455 0 2.525-.225 3.212-.677.686-.452 1.029-1.27 1.029-2.459V7.58c0-.902-.21-1.56-.628-1.979-.42-.417-1.216-.625-2.39-.625M34.515 10.141c-.296-.2-.445-.602-.445-1.208V5.54c0-.662.132-1.096.393-1.301.261-.207.829-.31 1.701-.31.826 0 1.693.115 2.6.343v-1.13a11.463 11.463 0 0 0-2.408-.258c-.442 0-.794.009-1.056.026-.262.018-.564.051-.907.102-.343.051-.614.14-.811.266-.198.126-.39.292-.576.497a1.888 1.888 0 0 0-.41.806 4.659 4.659 0 0 0-.13 1.182v3.05c0 .515.069.946.209 1.294.14.349.304.615.496.797.193.183.472.323.838.42.366.097.692.154.977.172.286.016.684.025 1.196.025 1.035 0 1.936-.08 2.704-.24v-1.166c-.872.218-1.721.326-2.547.326-.92 0-1.527-.1-1.824-.3M46.737 8.95c0 .366-.04.658-.122.874a.807.807 0 0 1-.453.471 2.255 2.255 0 0 1-.68.181 11.92 11.92 0 0 1-1.03.033c-.454 0-.797-.011-1.03-.033a2.248 2.248 0 0 1-.68-.18.81.81 0 0 1-.454-.472c-.082-.216-.122-.508-.122-.873V5.59c0-.764.157-1.239.47-1.422.315-.183.92-.274 1.816-.274s1.5.091 1.815.274c.314.183.47.658.47 1.423V8.95zm.916-5.363c-.191-.205-.473-.363-.846-.471a4.972 4.972 0 0 0-1.038-.197c-.32-.024-.759-.035-1.317-.035-.558 0-.998.011-1.318.035-.32.023-.666.088-1.038.197-.372.108-.654.266-.846.471-.192.205-.355.497-.49.873-.133.377-.2.84-.2 1.388v2.88c0 .64.085 1.153.254 1.541.168.39.447.672.837.85.39.177.78.287 1.17.333.389.046.933.07 1.631.07.546 0 .985-.013 1.317-.035.332-.024.68-.086 1.047-.189.366-.102.648-.25.846-.445.198-.194.361-.469.489-.823s.192-.788.192-1.302v-2.88c0-.548-.067-1.01-.2-1.388-.135-.376-.297-.668-.49-.873z"/>
        <mask id="b" fill="#fff">
            <use xlink:href="#a"/>
        </mask>
        <path fill="#85A9E0" d="M50.546 11.35h1.57V3.055h-1.57zM50.546 1.668h1.57V.057h-1.57zM61.246 3.475c-.419-.394-1.186-.591-2.303-.591-1.687 0-2.611.394-2.775 1.183V3.056h-1.57v8.294h1.57V5.352c0-.525.157-.885.471-1.08.315-.194.931-.291 1.85-.291.396 0 .725.038.986.111.262.075.448.183.558.326.11.143.184.282.218.42.035.137.053.309.053.514v5.998h1.57V5.266c0-.799-.209-1.397-.628-1.79M6.812 9.186c0 .432-.184.738-.55.917-.366.18-.995.27-1.886.27h-2.6V5.372H5.525V4.165h-1.53v.002H0v7.411h4.376c1.49 0 2.564-.173 3.223-.521.659-.347.988-.947.988-1.799V8.431H6.812v.755z" mask="url(#b)"/>
        <path fill="#85A9E0" d="M7.599.521C6.94.174 5.865.001 4.376.001H0V3.177h1.776V1.205h2.6c.891 0 1.52.09 1.886.27.366.18.55.485.55.917V5.29c0 .432-.184.737-.55.917-.366.18-.995.27-1.886.27H2.993V7.68h1.384c1.488 0 2.563-.173 3.222-.52.66-.348.988-.948.988-1.8V2.32c0-.852-.329-1.451-.988-1.799" mask="url(#b)"/>
    </g>
</svg>
