<svg xmlns="http://www.w3.org/2000/svg" xmlns:xlink="http://www.w3.org/1999/xlink" width="340" height="179" viewBox="0 0 340 179">
    <defs>
        <radialGradient id="a" cy="0%" r="59.473%" fx="50%" fy="0%" gradientTransform="matrix(0 1 -.81884 0 .5 -.5)">
            <stop offset="0%" stop-color="#B9CADE"/>
            <stop offset="100%" stop-color="#EAEFF5"/>
        </radialGradient>
        <linearGradient id="b" x1="116.526%" x2="51.182%" y1="50%" y2="52.505%">
            <stop offset="0%" stop-color="#7358B0"/>
            <stop offset="100%" stop-color="#A391CA"/>
        </linearGradient>
        <linearGradient id="c" x1="25.496%" x2="131.16%" y1="63.434%" y2="63.434%">
            <stop offset="0%" stop-color="#EAAB95"/>
            <stop offset="100%" stop-color="#DF9A81"/>
        </linearGradient>
        <path id="d" d="M43.188 1.298l.607-.235c1.784.89 3.34 1.9 4.671 3.033.78.665 1.96 1.555 3.028 2.71.501.543 1.24 1.485 2.218 2.827 8.045 12.018 7.096 18.859-2.846 20.52a9.81 9.81 0 0 1-.737.095c.538 2.455.47 5.041-.205 7.756-10.986 3.415-22.152 2.935-33.499-1.442 0-4.953.177-9.173.53-12.662-4.397-1.02-8.122-2.21-11.173-3.57-7.461-3.325-7.713-7.178.59-11.268 8.304-4.09 19.187-11.658 25.176-7.674.092.06.18.124.265.191l11.375-.281z"/>
        <path id="e" d="M3.415 1.046c2.177 6.731 1.38 10.14-2.39 10.226-2.234.05.432 2.508 7.433 2.921 1.422.084 4.595-.595 9.518-2.037-3.16-1.848-4.434-4.002-3.822-6.463.305-1.222.837-4.499-.928-5.271-1.192-.522-4.463-.314-9.811.624z"/>
        <linearGradient id="f" x1="70.74%" x2="58.209%" y1="70.749%" y2="-24.577%">
            <stop offset="0%" stop-color="#EAAB95"/>
            <stop offset="100%" stop-color="#D38B72"/>
        </linearGradient>
        <linearGradient id="h" x1="16.609%" x2="50%" y1="34.24%" y2="0%">
            <stop offset="0%" stop-color="#EAAB95"/>
            <stop offset="100%" stop-color="#D38B72"/>
        </linearGradient>
    </defs>
    <g fill="none" fill-rule="evenodd">
        <path stroke="#BCCBDA" stroke-linecap="round" stroke-linejoin="round" stroke-width="2" d="M14.766 45c3.222 24.934 23.949 50.106 62.18 75.517 12.902 7.944 19.237 17.825 19.007 29.644"/>
        <path fill="#BCCBDA" d="M16.855 56.648c-4.77-6.552-10.477-11.532-3.988-21.714 1.367-2.145 4.015 3.192 5.66 5.138 3.905 4.618.712 11.075-.876 15.643l-.796.933zM25.06 71.857c-1.51-7.77-4.499-14.533 5.46-20.883 2.097-1.338 2.232 4.483 2.882 6.884 1.544 5.701-3.955 10.107-7.251 13.5l-1.091.5zM38.06 87.857c-1.51-7.77-4.499-14.533 5.46-20.883 2.097-1.338 2.232 4.483 2.882 6.884 1.544 5.701-3.955 10.107-7.251 13.5l-1.091.5zM32.316 82.445c-7.57 2.313-13.984 5.994-21.34-3.246-1.55-1.947 4.225-2.689 6.545-3.587 5.509-2.132 10.465 2.877 14.184 5.8l.61 1.033zM44.28 93.485c-6.562 4.425-11.62 9.82-21.355 3.135-2.051-1.409 3.254-3.807 5.21-5.344 4.645-3.65 10.849-.309 15.26 1.4l.886.81zM22.316 65.445C14.746 67.758 8.332 71.44.976 62.2c-1.55-1.947 4.225-2.689 6.545-3.587 5.509-2.132 10.465 2.877 14.184 5.8l.61 1.033z"/>
        <g>
            <path stroke="#BCCBDA" stroke-linecap="round" stroke-linejoin="round" stroke-width="2" d="M311.614 46c-1.069 25.016-19.527 51.812-55.375 80.387-4.591 5.674-7.536 10.3-8.835 13.88"/>
            <path fill="#BCCBDA" d="M310.61 57.94c4.18-6.942 9.431-12.4 2.08-21.979-1.549-2.017-3.722 3.53-5.191 5.612-3.488 4.941.256 11.095 2.237 15.507l.874.86zM303.099 75.292c.826-7.872 2.784-13.315-7.259-20.328-1.833-1.28-1.833 4.66-2.272 7.11-1.041 5.813 4.82 9.723 8.4 12.816l1.13.402zM293.099 90.292c.826-7.872 3.215-14.87-7.259-20.328-2.206-1.15-1.833 4.66-2.272 7.11-1.041 5.813 4.82 9.723 8.4 12.816l1.13.402zM266.91 118.414c2.576-7.484 6.478-13.766-2.5-21.44-1.89-1.616-2.834 4.13-3.812 6.417-2.323 5.43 2.51 10.558 5.302 14.377l1.01.646zM298.346 83.714c7.743 1.645 14.453 4.752 20.975-5.094 1.374-2.074-4.443-2.31-6.833-3.002-5.673-1.644-10.174 3.778-13.624 7.014l-.518 1.082zM287.222 96.033c6.924 3.836 12.433 8.77 21.549 1.261 1.92-1.582-3.574-3.508-5.657-4.87-4.945-3.23-10.834.639-15.08 2.726l-.812.883zM276.238 109.633c7.053 3.593 12.73 8.33 21.58.509 1.863-1.648-3.695-3.382-5.824-4.67-5.054-3.055-10.805 1.017-14.975 3.25l-.78.911zM306.346 66.714c7.743 1.645 14.453 4.752 20.975-5.094 1.374-2.074-1.16-1.358-6.833-3.002-5.673-1.644-10.174 3.778-13.624 7.014l-.518 1.082z"/>
        </g>
        <g>
            <path fill="#D6E0F5" d="M274.381 12c3.103 0 5.619 2.646 5.619 5.911V157.09c0 3.265-2.516 5.911-5.619 5.911H64.62c-3.103 0-5.619-2.646-5.619-5.911V17.91C59 14.646 61.516 12 64.619 12H274.38z"/>
            <path fill="#FFF" d="M274.332 11c3.13 0 5.668 2.646 5.668 5.91v137.18c0 3.264-2.538 5.91-5.668 5.91H64.668c-3.13 0-5.668-2.646-5.668-5.91V16.91c0-3.264 2.538-5.91 5.668-5.91h209.664z"/>
            <path fill="#E5EAF4" d="M258.708 110c1.266 0 2.292 1.12 2.292 2.5s-1.026 2.5-2.292 2.5H80.292c-1.266 0-2.292-1.12-2.292-2.5s1.026-2.5 2.292-2.5h178.416zm0 13c1.266 0 2.292 1.12 2.292 2.5s-1.026 2.5-2.292 2.5H80.292c-1.266 0-2.292-1.12-2.292-2.5s1.026-2.5 2.292-2.5h178.416zm0 12c1.266 0 2.292 1.12 2.292 2.5s-1.026 2.5-2.292 2.5H80.292c-1.266 0-2.292-1.12-2.292-2.5s1.026-2.5 2.292-2.5h178.416z"/>
            <path fill="#E89696" d="M223 41h-31c-6.627 0-12 5.373-12 12v29c0 6.627 5.373 12 12 12h31c6.627 0 12-5.373 12-12V53c0-6.627-5.373-12-12-12z" opacity=".6"/>
            <g stroke="#FFF" stroke-linecap="round" stroke-linejoin="round" stroke-width="5">
                <path d="M196 57l22.368 22.48M218 57l-22.368 22.48"/>
            </g>
            <g transform="translate(103 41)">
                <path fill="#C5D3F3" d="M43 0H12C5.373 0 0 5.373 0 12v29c0 6.627 5.373 12 12 12h31c6.627 0 12-5.373 12-12V12c0-6.627-5.373-12-12-12z"/>
                <circle cx="28" cy="26" r="11" stroke="#FFF" stroke-width="5"/>
            </g>
            <g transform="translate(23 29)">
                <ellipse cx="29" cy="144.5" fill="url(#a)" rx="29" ry="4.5"/>
                <path fill="#EAAB95" d="M20.223 126.423l2.155 13.607h2.959L26.423 124zM31.174 127.206l1.678 13.673 2.903-.244 1.7-15.635z"/>
                <path fill="#677499" d="M22.324 139.968c-.368.66-.35 1.237.052 1.73 2.638-.12 4.185-.241 4.64-.365.683-.185 2.913-.903-1.757-1.365M32.792 140.218c-.368.66-.35 1.237.052 1.73 2.639-.12 4.185-.241 4.64-.365.683-.185 2.914-.903-1.757-1.365"/>
                <path fill="#A391CA" d="M30.867 81.487c-.845 26.435-2.52 42.92-5.023 49.456-1.02.925-1.888 1.389-2.607 1.391-1.219.004-2.38.204-3.498-1.391-1.334-1.905-4.475-10.242-4.895-26.963-.098-3.89-3.383-15.441-3-19 1.243-11.55 7.013-22.677 14.112-23.494 12.459-1.434 14.096 5.234 4.91 20.001z"/>
                <path fill="#A391CA" d="M39.678 66.088c7.01 16.13 6.264 38.246-2.24 66.347-1.456 2.14-3.433 2.297-5.931.47-3.748-2.74-11.003-37.628-11.26-52.32-.17-9.793 6.306-14.626 19.431-14.497z"/>
                <path fill="url(#b)" d="M9.696 29.708c1.73.033 11.355 4.343 8.131 32.681-.466 4.1-9.862-32.714-8.131-32.681z" transform="rotate(-1 3477.157 -485.344)"/>
                <path fill="#EAAB95" d="M66 31.181c2.276-4.828 4.246-7.509 5.911-8.043 1.665-.534 1.42.482-.733 3.05 1.102 2.13.768 4.033-1.003 5.71-1.772 1.678-3.163 1.44-4.175-.717zM36.647 9.684c1.245 9.742-.805 15.48-6.151 17.216-5.346 1.736-8.178 1.417-8.496-.955l4.335-16.26L34.026 7l2.621 2.684z"/>
                <path fill="#EAAB95" d="M29.835 23.359c-2.49 3.242-2.588 7.184-.295 11.826C32.98 42.148 16 34.125 16 33.118c0-.673 1.908-5.712 5.724-15.118l8.11 5.359z"/>
                <path fill="#C15D5D" d="M15 32.718l.986-3.33c5.748-1.139 11.527.23 17.339 4.108 5.811 3.877 2.155 6.045-10.97 6.504L15 32.718z"/>
                <path fill="#E58989" d="M31.859 32.843c9.352 3.105-3.418 8.629 4.145 13.236 5.042 3.072 6.233 9.852 3.574 20.342-6.252 4.043-13.396 5.1-21.432 3.173-12.054-2.891-4.902-35.67-4.061-37.02.84-1.35 8.421-2.836 17.774.269z"/>
                <path fill="#E58989" d="M23.732 32.605c5.989-3.984 22.54 6.557 30.845 10.647 8.303 4.09 8.051 7.943.59 11.268-4.974 2.217-14.34 4.56-28.096 7.028-6.219-16.64-7.332-26.287-3.34-28.943z"/>
                <path fill="#E58989" d="M59.287 52c4.969-4.343 7.15-8.417 10.312-19.616l-3.584-1.219c-4.089 5.006-8.286 8.774-12.592 11.305-6.458 3.796.895 13.873 5.864 9.53z"/>
                <g>
                    <path fill="#855E5B" d="M24.579 27.73c-3.295 1.9-8.218 1.668-14.77-.697-6.838-2.469-7.639-5.228-2.403-8.277 2.356-1.692 4.406-4.666 6.152-8.92.135-.409.294-.814.478-1.215.128-.325.265-.597.41-.816.264-.481.564-.956.9-1.425C18.468 2.024 22.431-.1 27.236.004A10.58 10.58 0 0 1 30 .293l-.001.002c.792.19 1.574.473 2.347.848 5.985 2.908 7.524 4.1 7.648 6.645.124 2.545-1.663 3.48-7.156 3.48-3.661 0-5.535 2.307-5.62 6.922.128 4.966-.611 8.057-2.22 9.274a2.88 2.88 0 0 1-.42.265z"/>
                    <path fill="#D36969" d="M40.887 58.788l-9 .85 8.286 4.15c.189-.965.33-1.756.426-2.375.095-.618.19-1.493.288-2.625z"/>
                    <path fill="url(#c)" d="M32.373 16c.944.599 1.416 1.158 1.416 1.676 0 .519-.536.96-1.607 1.324l-.393-1.778.393-1.222h.191z" transform="translate(4)"/>
                </g>
            </g>
            <g fill="url(#a)" transform="matrix(-1 0 0 1 314 166)">
                <ellipse cx="29" cy="4.5" rx="29" ry="4.5"/>
            </g>
        </g>
        <g>
            <use fill="#96D2BA" transform="translate(252 119)" xlink:href="#d"/>
            <path fill="#EAAB95" d="M247.168 115.688c-2.328-4.825-4.35-7.508-6.065-8.048-1.715-.54-1.463.487.755 3.083-1.135 2.154-.79 4.08 1.034 5.777 1.824 1.696 3.25 1.426 4.276-.812z"/>
            <path fill="#96D2BA" d="M253.103 136.442c-4.97-4.343-6.48-8.274-9.641-19.472l3.625-1.451c4.009 5.103 8.166 8.92 12.471 11.45 6.459 3.797-1.486 13.816-6.455 9.473z"/>
            <g transform="translate(278 108)">
                <mask id="g" fill="#fff">
                    <use xlink:href="#e"/>
                </mask>
                <use fill="#EAAB95" xlink:href="#e"/>
                <path fill="url(#f)" d="M4.157 8.886c1.52.415 2.629.473 3.327.175 1.047-.447-.723 3.479-4.705 1.917C.124 9.937.583 9.239 4.157 8.886z" mask="url(#g)"/>
            </g>
            <path fill="#A3867A" d="M305.273 154.583c6.137.114 7.8 2.22 7.146 7.544-.654 5.323-5.37 5.592-8.785 6.238-2.277.43-11.987.21-29.128-.662-2.566-1.898-2.707-3.913-.421-6.047 3.428-3.2 25.052-7.187 31.188-7.073z"/>
            <path fill="#EAAB95" d="M290.235 163.952l11.711 2.213-1.405 3.057-11.314.256z"/>
            <path fill="#84C7AB" d="M289 143c4.688 5.233 4.537 8.152 13.46 8.702a14.287 14.287 0 0 0-.339-2.458c-.189-.84-.229-1.279-.121-1.315-8.356-7.139-13.023-10.949-14-11.429-1.466-.72-3.688 1.267 1 6.5z"/>
            <path fill="#86C9AD" d="M292.953 133.915c5.147 1.039 8.174 2.21 9.081 3.516.907 1.305.907 1.776 0 1.413l-8.374 3.07v-4.483l-.707-3.516z"/>
            <path fill="#EAAB95" d="M286.459 136.053c-.572-.72-1.394-2.468-.923-3.06.164-.208.48-.025.847.348-.526-.762-1.15-2.204-.74-2.72.254-.32.886.34 1.493 1.16-.465-.793-.896-1.95-.538-2.4.341-.43 1.362.904 2.09 2.024-.444-.82-.807-1.895-.458-2.335.442-.556 1.966 1.696 2.668 2.885.085.109.221.24.45.292l.018-.214c.103-1.1.301-1.697.595-1.791.333-.107.677 1.01 1.03 3.353.096.515.085 1.179-.033 1.99l-3.418 2.666c-1.57-.65-2.597-1.382-3.081-2.198z"/>
            <path fill="#96D2BA" d="M300.96 149.265c-5.453-.42-9.271-3.007-11.455-7.759-2.184-4.752-.861-6.916 3.97-6.491 5.425 1.18 8.907 3.154 10.443 5.921 1.337 2.408 2.993 6.994-.224 8.044-.813.265-1.724.36-2.734.285z"/>
            <path fill="#B39487" d="M264.906 154.72c-6.13-.314-7.935 1.672-7.654 7.028.28 5.355 4.966 5.953 8.328 6.835 2.242.588 11.943 1.046 29.103 1.372 2.693-1.714 2.973-3.715.842-6.003-3.197-3.432-24.49-8.917-30.619-9.231z"/>
            <path fill="#8D7676" d="M270.328 169.131c-.162.724-1.704 1.061-4.627 1.01-4.384-.076-4.22-3.96-.775-3.633 2.297.218 4.102 1.08 5.414 2.586l-.012.037zM300.044 169.23c.707 0 2.41-.01 5.108-.032 4.048-.034 4.851-4.636 1.455-3.937-2.265.465-4.28.678-6.049.638l-.514 3.332z"/>
            <path fill="#EAAB95" d="M281 94.788c-1.8-.332-3.747 4.375-3.875 4.81-2.6 8.83-1.454 14.392 3.435 16.688 5.13 2.408 8.124 1.137 8.983-3.815l8.182-9.07c-9.95-5.52-15.525-8.391-16.725-8.613z"/>
            <path fill="url(#c)" d="M21.77 11.581c.762.553 1.144 1.068 1.144 1.546 0 .479-.433.886-1.3 1.222l-.317-1.64.317-1.128h.155z" transform="scale(-1 1) rotate(-7 639.408 2492.396)"/>
            <path fill="#825B58" d="M296.059 96.35c2.345 1.484 3.518 4.36 3.518 8.627 0 1.598-.416 4.25-1.577 6.023-2.108 3.22-5.678 5.66-6 4.42-.5-1.92-.477-2.335-2.477-6.028-2-3.693-.462-1.288-1.523-1.288-.707 0-1.06-.72-1.06-2.158 0-2.658-3.335-4.959-5.313-6.578-2.677-2.066-5.448-6.405-4.879-7.602.248-.521 1.241-.488 3.033-.171.974.172 3.13.282 6.468.33v.002c2.23.05 4.167.47 5.811 1.264 1.691.671 3.024 1.725 3.999 3.16z"/>
            <path fill="url(#h)" d="M49.265 20.04c.363.32.363 1 .956 1.61.695.714 2.613 2.487 2.8 3.12.392 1.325-.371-3.77-1.901-5.472-.038-.04-2.439.226-1.855.741z" transform="translate(239 91)"/>
            <path fill="#EAAB95" d="M287.908 107.246c1.106-.895 2.675-1.263 2.92.357.143.943-.179 2.46-1.292 3.218-.802.546-2.316.606-2.947.212-1.507-.942.213-2.892 1.319-3.787zM278.342 119.868a1.353 1.353 0 0 1-.259-.516c.303-.045.555-.067.754-.067.2 0 .035.194-.495.583z"/>
        </g>
    </g>
</svg>
