<svg xmlns="http://www.w3.org/2000/svg" xmlns:xlink="http://www.w3.org/1999/xlink" width="223" height="140" viewBox="0 0 223 140">
    <defs>
        <path id="a" d="M11.498 32.835a2.904 2.904 0 0 1-2.904-2.904V27.74c0-1.603 1.3-2.904 2.904-2.904a2.904 2.904 0 0 1-2.904-2.904V19.74c0-1.603 1.3-2.904 2.904-2.904a2.904 2.904 0 0 1-2.904-2.904V11.74c0-1.603 1.3-2.904 2.904-2.904h-8A2.904 2.904 0 0 1 .594 5.931V3.74c0-1.603 1.3-2.904 2.904-2.904H37.69c1.604 0 2.904 1.3 2.904 2.904v2.192c0 1.604-1.3 2.904-2.904 2.904h8c1.604 0 2.904 1.3 2.904 2.904v2.192c0 1.604-1.3 2.904-2.904 2.904 1.604 0 2.904 1.3 2.904 2.904v2.192c0 1.604-1.3 2.904-2.904 2.904 1.604 0 2.904 1.3 2.904 2.904v2.192c0 1.604-1.3 2.904-2.904 2.904h-2c1.604 0 2.904 1.3 2.904 2.904v2.192c0 1.604-1.3 2.904-2.904 2.904H9.498a2.904 2.904 0 0 1-2.904-2.904V35.74c0-1.603 1.3-2.904 2.904-2.904h2z"/>
        <path id="c" d="M10.285 16.174h-7A2.904 2.904 0 0 1 .38 13.27v-2.192c0-1.604 1.3-2.904 2.904-2.904h8A2.904 2.904 0 0 1 8.38 5.27V3.078c0-1.604 1.3-2.904 2.904-2.904h34.192c1.604 0 2.904 1.3 2.904 2.904V5.27c0 1.604-1.3 2.904-2.904 2.904h-8c1.604 0 2.904 1.3 2.904 2.904v2.192c0 1.604-1.3 2.904-2.904 2.904h7c1.604 0 2.904 1.3 2.904 2.904v2.192c0 1.604-1.3 2.904-2.904 2.904H10.285A2.904 2.904 0 0 1 7.38 21.27v-2.192c0-1.604 1.3-2.904 2.904-2.904z"/>
    </defs>
    <g fill="none" fill-rule="evenodd">
        <path fill="#DBE6F2" d="M38 122.902c-6.667-6.783-10-15.847-10-27.19C28 42.851 71.205 0 124.5 0c51.237 0 93.147 39.605 96.308 89.632H221V139H38v-16.098z"/>
        <g transform="translate(52 43)">
            <rect width="144" height="93" x=".439" y=".289" fill="#FFF" rx="1.936"/>
            <path fill="#9DAEE2" d="M79.788 57.138v-2.22h5.048v2.431c0 2.503-.936 4.265-2.81 5.285-1.874 1.023-4.929 1.533-9.162 1.533H60.423V42.386h11.356v-.006h4.35v3.547H65.474v6.067h-.001v8.631h7.392c2.533 0 4.32-.262 5.362-.793 1.04-.527 1.562-1.425 1.562-2.694zm2.238-25.465c1.875 1.021 2.811 2.782 2.811 5.285v2.792h-.001v6.148c0 2.503-.935 4.263-2.81 5.285-1.875 1.023-4.929 1.532-9.162 1.532H68.932v-3.541H72.864c2.533 0 4.32-.264 5.361-.793 1.041-.527 1.562-1.425 1.562-2.694v-8.518c0-1.27-.52-2.165-1.562-2.694-1.04-.53-2.828-.793-5.36-.793h-7.392V39.48h-5.05v-9.34h12.441c4.233 0 7.289.51 9.162 1.532z"/>
        </g>
        <path fill="#BED3F6" d="M1.212 131.874l23.12-20.925a2.904 2.904 0 0 1 4.112.215l2.076 2.317a2.904 2.904 0 0 1-.214 4.09l-23.12 20.927a2.904 2.904 0 0 1-4.112-.216l-2.076-2.316a2.904 2.904 0 0 1 .214-4.092z"/>
        <g transform="translate(20.406 98.165)">
            <mask id="b" fill="#fff">
                <use xlink:href="#a"/>
            </mask>
            <use fill="#BED3F6" xlink:href="#a"/>
            <path fill="#A1BAE2" d="M.594 7.835h40v1h-40v-1zm9 8h39v1h-39v-1zm-1 8h39v1h-39v-1zm0 8h39v1h-39v-1z" mask="url(#b)"/>
        </g>
        <path fill="#A1BAE2" d="M54 99h4.096C59.7 99 61 100.3 61 101.904v2.192C61 105.7 59.7 107 58.096 107H54v-8zM54 107h12.096C67.7 107 69 108.3 69 109.904v2.192C69 113.7 67.7 115 66.096 115H54v-8zM54 115h12.096C67.7 115 69 116.3 69 117.904v2.192C69 121.7 67.7 123 66.096 123H54v-8zM54 123h12.096C67.7 123 69 124.3 69 125.904v2.192C69 129.7 67.7 131 66.096 131H54v-8zM54 131h10.096C65.7 131 67 132.3 67 133.904v2.192C67 137.7 65.7 139 64.096 139H54v-8z" opacity=".4"/>
        <g>
            <g transform="translate(174.62 114.826)">
                <mask id="d" fill="#fff">
                    <use xlink:href="#c"/>
                </mask>
                <use fill="#BED3F6" xlink:href="#c"/>
                <path fill="#A1BAE2" d="M1.381 7.174h46v1h-46zM-.619 15.174h47v1h-47z" mask="url(#d)"/>
            </g>
            <path fill="#A1BAE2" d="M208 115h12.096c1.604 0 2.904 1.3 2.904 2.904v2.192c0 1.604-1.3 2.904-2.904 2.904H208v-8zM208 131h11.096c1.604 0 2.904 1.3 2.904 2.904v2.192c0 1.604-1.3 2.904-2.904 2.904H208v-8zM208 123h4.096c1.604 0 2.904 1.3 2.904 2.904v2.192c0 1.604-1.3 2.904-2.904 2.904H208v-8z" opacity=".5"/>
        </g>
    </g>
</svg>
