<svg xmlns="http://www.w3.org/2000/svg" xmlns:xlink="http://www.w3.org/1999/xlink" width="132" height="125" viewBox="0 0 132 125">
    <defs>
        <radialGradient id="a" cx="46.257%" r="363.563%" fx="46.257%" fy="50%" gradientTransform="matrix(.11108 0 0 .12911 .411 .435)">
            <stop offset="0%" stop-color="#CCD7E4"/>
            <stop offset="100%" stop-color="#EAEFF5"/>
        </radialGradient>
        <radialGradient id="b" cy="0%" r="70.714%" fx="50%" fy="0%" gradientTransform="matrix(0 1 -.70276 0 .5 -.5)">
            <stop offset="0%" stop-color="#B9CADE"/>
            <stop offset="100%" stop-color="#EAEFF5"/>
        </radialGradient>
        <path id="c" d="M47.763 23.899a2 2 0 0 1 2 2v3.698a2 2 0 0 1-2 2H10.801a2 2 0 0 1-2-2V25.9a2 2 0 0 1 2-2 2 2 0 0 1-2-2V18.2a2 2 0 0 1 2-2 2 2 0 0 1-2-2v-3.699a2 2 0 0 1 2-2H2.608a2 2 0 0 1-2-2V2.804a2 2 0 0 1 2-2h36.963a2 2 0 0 1 2 2v3.698a2 2 0 0 1-2 2h8.192a2 2 0 0 1 2 2v3.699a2 2 0 0 1-2 2 2 2 0 0 1 2 2v3.698a2 2 0 0 1-2 2z"/>
        <rect id="e" width="40.26" height="6.71" rx="2"/>
        <path id="g" d="M13.211 11.469l1.407-.613c2.587 7.4 3.88 11.355 3.88 11.866 0 .766-14.417 5.89-11.603.595 1.123-2.11 1.545-4.031 1.267-5.762a26.212 26.212 0 0 1-2.049-.536C1.74 15.699.061 11.336 1.08 3.929c.28-1.79.641-2.896 1.082-3.316.661-.629 4.94.69 4.94.69l3.523 2.413 2.788 6.811c-.066.325-.133.639-.2.942z"/>
        <linearGradient id="h" x1="82.819%" x2="61.389%" y1="50%" y2="-29.272%">
            <stop offset="0%" stop-color="#EAAB95"/>
            <stop offset="100%" stop-color="#CB8167"/>
        </linearGradient>
        <linearGradient id="j" x1="25.496%" x2="131.16%" y1="63.434%" y2="63.434%">
            <stop offset="0%" stop-color="#EAAB95"/>
            <stop offset="100%" stop-color="#DF9A81"/>
        </linearGradient>
        <linearGradient id="k" x1="16.609%" x2="50%" y1="34.24%" y2="0%">
            <stop offset="0%" stop-color="#EAAB95"/>
            <stop offset="100%" stop-color="#D38B72"/>
        </linearGradient>
    </defs>
    <g fill="none" fill-rule="evenodd" transform="translate(-1 -.136)">
        <ellipse cx="95.152" cy="117.682" fill="url(#a)" rx="33.152" ry="3.682" transform="matrix(-1 0 0 1 190.304 0)"/>
        <ellipse cx="28.652" cy="120.682" fill="url(#b)" rx="27.652" ry="3.682" transform="matrix(-1 0 0 1 57.304 0)"/>
        <g transform="translate(1.031 87.233)">
            <mask id="d" fill="#fff">
                <use xlink:href="#c"/>
            </mask>
            <use fill="#F8D486" xlink:href="#c"/>
            <path fill="#DDB971" d="M.608 7.54h40.963v.924H.608V7.54zm9.217 7.39h39.938v.924H9.825v-.924zm-1.024 8.353h39.938v.924H8.801v-.924zm0 7.39h39.938v.924H8.801v-.924z" mask="url(#d)"/>
        </g>
        <path fill="#E5C179" d="M35.434 88.037h4.264c1.604 0 2.904 1.3 2.904 2.904v1.89c0 1.604-1.3 2.904-2.904 2.904h-4.264v-7.698zM35.434 95.735H47.89c1.604 0 2.904 1.3 2.904 2.904v1.89c0 1.605-1.3 2.905-2.904 2.905H35.434v-7.699zM35.434 103.434H47.89c1.604 0 2.904 1.3 2.904 2.904v1.89c0 1.604-1.3 2.904-2.904 2.904H35.434v-7.698zM35.434 111.132H47.89c1.604 0 2.904 1.3 2.904 2.904v1.89c0 1.604-1.3 2.904-2.904 2.904H35.434v-7.698z" opacity=".4"/>
        <path fill="#EAAB95" d="M121.165 99.01v18.16l-2.377.462-5.053-16.587z"/>
        <path fill="#677499" d="M121.198 117.112c.4.473.475.939.228 1.397-2.138.316-3.399.46-3.784.432-.577-.042-2.481-.27 1.199-1.37"/>
        <g transform="translate(52.562 19.136)">
            <mask id="f" fill="#fff">
                <use xlink:href="#e"/>
            </mask>
            <use fill="#F8D486" xlink:href="#e"/>
            <path fill="#DDB971" d="M0 6.151h40.26v1H0z" mask="url(#f)"/>
        </g>
        <path fill="#E5C179" d="M79.402 19.136h11.42a2 2 0 0 1 2 2v2.71a2 2 0 0 1-2 2h-11.42v-6.71z" opacity=".4"/>
        <path fill="#EAAB95" d="M84.463 97.601L69.638 114.81l-1.884-1.461 11.019-21.007z"/>
        <path fill="#677499" d="M69.974 114.384c-.042.617-.31 1.005-.807 1.163-1.757-1.258-2.765-2.03-3.022-2.318-.386-.432-1.597-1.918 1.814-.153"/>
        <path fill="#C2645D" d="M119.282 13.47c1.05 6.146 3.263 10.22 6.638 12.222 4.517 3.176 5.452 6.912 2.805 11.21-2.646 4.296-3.066 7.109-1.258 8.437 4.303 1.665 5.893 3.983 4.772 6.953-.865 2.29-6.725 5.467-16.89 4.9-2.012-.111-5.327-1.177-9.943-3.196 2.357-16.39 3.167-25.824 2.43-28.304-4.197-14.115-9.455-13.197-9.193-17.387.373-5.955 8.641-3.546 9.193-2.446 1.497 2.983 9.87-1.607 11.446 7.611z"/>
        <path fill="#879CCC" d="M97.324 55.573l-22.71 39.441c6.3 4.283 13.871 7.28 22.71 8.991 2.11.409 4.211.72 6.304.933 2.137.218 4.265.335 6.384.35 2.999.02 7.829-.78 14.49-2.4-1.602-22.779-4.376-37.553-8.322-44.322-3.946-6.77-10.231-7.768-18.856-2.993z"/>
        <path fill="#EAAB95" d="M75.454 28.835c-.51-2.077-1.461-3.115-2.852-3.115h-2.958c.147 1.317.945 2.507 2.394 3.57 1.45 1.061 2.588.91 3.416-.455z"/>
        <g transform="translate(96.177 6.71)">
            <mask id="i" fill="#fff">
                <use xlink:href="#g"/>
            </mask>
            <use fill="#EAAB95" xlink:href="#g"/>
            <path fill="url(#h)" d="M6.776 17.373c1.672.249 2.938.304 3.798.166 1.291-.207-.608 3.769-5.453 2.022-3.23-1.164-2.678-1.894 1.655-2.188z" mask="url(#i)"/>
        </g>
        <path fill="#9DC39C" d="M103.393 29.858c-2.714 1.77 6.19 7.931 0 11.702-4.126 2.513-6.169 7.295-6.129 14.346 5.17 2.739 11.35 3.59 18.537 2.553.122-.017.273-.015.353-.148 6.07-10.034-.851-28.014-1.54-29.12-.688-1.104-8.507-1.104-11.22.667z"/>
        <path fill="#9DC39C" d="M110.044 29.663c-4.901-3.26-18.446 5.366-25.242 8.713-6.795 3.347-6.589 6.5-.483 9.22 4.07 1.815 11.735 3.732 22.992 5.752 5.09-13.617 6-21.512 2.733-23.685z"/>
        <path fill="#9DC39C" d="M80.948 45.534c-4.067-3.553-5.594-6.653-8.182-15.817l2.633-1.12c3.375 4.021 6.824 7.067 10.347 9.139 5.285 3.106-.732 11.352-4.798 7.798z"/>
        <g>
            <path fill="#8DB58C" d="M97.578 51.427l6.1 1.314-6.374 1.706c-.017-.312-.006-.76.034-1.343s.12-1.142.24-1.677z"/>
            <path fill="url(#j)" d="M6.362.792c.772.49 1.158.947 1.158 1.371 0 .424-.438.786-1.315 1.084l-.321-1.455.321-1h.157z" transform="matrix(-1 0 0 1 103.824 15.283)"/>
        </g>
        <path fill="#C2645D" d="M108.376 11.546c1.09 1.809 1.636 4.006 1.636 6.59 0 .778-.708.526-2.124-.753 0-2.183-3.512-3.89-5.183-4.487-2.647-.945-4.108-2.137-4.824-3.114-1.343-1.456-.7-4.81.4-6.09a9.03 9.03 0 0 1 1.031-.99C102.834-.014 107-.433 111.806 1.444c3.547 1.385 5.045 3.9 6.262 6.966.307.771.61 2.011.909 3.72-4.148-.179-7.681-.373-10.601-.585z"/>
        <path fill="url(#k)" d="M109.43 18.935c.265.233.565.43.698 1.174.339 1.91 2.048 1.189 2.26 2.195.21 1.006-.89-3.128-1.549-4.51-.02-.041-1.835.765-1.409 1.14z"/>
        <path fill="#EAAB95" d="M109.276 15.427c.956-.773 2.311-1.09 2.523.309.123.814-.154 2.124-1.117 2.78-.692.471-2 .523-2.545.183-1.302-.814.184-2.499 1.14-3.272z"/>
    </g>
</svg>
