<svg xmlns="http://www.w3.org/2000/svg" xmlns:xlink="http://www.w3.org/1999/xlink" width="211" height="71" viewBox="0 0 211 71">
    <defs>
        <path id="a" d="M2.564 0h31.872c.892 0 1.215.093 1.54.267.327.174.583.43.757.756.174.326.267.65.267 1.54v30.873c0 .892-.093 1.215-.267 1.54-.174.327-.43.583-.756.757-.326.174-.65.267-1.54.267H2.563c-.892 0-1.215-.093-1.54-.267a1.817 1.817 0 0 1-.757-.756C.093 34.65 0 34.327 0 33.437V2.563c0-.892.093-1.215.267-1.54.174-.327.43-.583.756-.757C1.35.093 1.673 0 2.563 0z"/>
    </defs>
    <g fill="none" fill-rule="evenodd">
        <path stroke="#D1DBE5" stroke-linecap="round" stroke-linejoin="round" stroke-width="2" d="M13.015 13.803C16.23 30.825 26.043 45.93 42.452 59.117"/>
        <path fill="#D1DBE5" d="M14.6 23.356l.655-.807c1.282-3.906 3.886-9.445.58-13.286-1.391-1.617-3.654-6.092-4.774-4.246-5.32 8.765-.506 12.876 3.539 18.34zm8.007 16.29l.938-.453c2.813-3.017 7.52-6.955 6.108-11.9-.595-2.084-.787-7.158-2.587-5.955-8.546 5.71-5.867 11.558-4.46 18.309zm10.989 10.912l.938-.455c2.812-3.016 7.52-6.955 6.108-11.9-.595-2.083-.788-7.158-2.588-5.955-8.545 5.711-5.867 11.559-4.458 18.31zm-5.62-5.073l-.543-.89c-3.26-2.486-7.62-6.768-12.364-4.813-1.999.823-6.992 1.57-5.624 3.242 6.493 7.93 12.002 4.61 18.53 2.46zm10.765 9.597l-.778-.69c-3.844-1.414-9.263-4.22-13.24-.957-1.674 1.375-6.24 3.559-4.444 4.752 8.522 5.662 12.834.868 18.462-3.105zM19.217 31.099l-.542-.89c-3.26-2.486-7.62-6.768-12.364-4.813-1.999.824-6.992 1.571-5.625 3.242 6.493 7.931 12.003 4.61 18.53 2.461z"/>
        <path stroke="#D1DBE5" stroke-linecap="round" stroke-linejoin="round" stroke-width="2" d="M197.94 13.803c-3.215 17.022-13.028 32.127-29.438 45.314"/>
        <path fill="#D1DBE5" d="M196.355 23.356l-.655-.807c-1.282-3.906-3.886-9.445-.581-13.286 1.392-1.617 3.655-6.092 4.775-4.246 5.319 8.765.506 12.876-3.539 18.34zm-8.007 16.29l-.939-.453c-2.812-3.017-7.519-6.955-6.107-11.9.595-2.084.787-7.158 2.587-5.955 8.545 5.71 5.867 11.558 4.459 18.309zm-10.99 10.912l-.938-.455c-2.812-3.016-7.519-6.955-6.107-11.9.595-2.083.787-7.158 2.587-5.955 8.545 5.711 5.867 11.559 4.459 18.31zm5.622-5.073l.542-.89c3.26-2.486 7.62-6.768 12.364-4.813 1.998.823 6.992 1.57 5.624 3.242-6.493 7.93-12.002 4.61-18.53 2.46zm-10.766 9.597l.778-.69c3.844-1.414 9.262-4.22 13.239-.957 1.675 1.375 6.24 3.559 4.445 4.752-8.522 5.662-12.834.868-18.462-3.105zm19.524-23.983l.542-.89c3.26-2.486 7.62-6.768 12.364-4.813 1.999.824 6.992 1.571 5.624 3.242-6.493 7.931-12.002 4.61-18.53 2.461z"/>
        <g transform="translate(54)">
            <path fill="#FFF" d="M100.381 4A2.62 2.62 0 0 1 103 6.623v61.754A2.62 2.62 0 0 1 100.381 71H2.62A2.62 2.62 0 0 1 0 68.377V6.623A2.62 2.62 0 0 1 2.619 4h97.762z"/>
            <g transform="translate(11 24)">
                <mask id="b" fill="#fff">
                    <use xlink:href="#a"/>
                </mask>
                <use fill="#EAF0F5" xlink:href="#a"/>
                <path fill="#B3C1EE" stroke="#B3C1EE" stroke-linecap="round" stroke-linejoin="round" stroke-width="2" d="M18.5 23.7c-3.25 0-5.883-2.566-5.883-5.731 0-3.166 2.634-5.732 5.883-5.732 3.25 0 5.883 2.566 5.883 5.732 0 3.165-2.634 5.73-5.883 5.73zm12.37 13.063c.091 2.666-.162 4-.76 4-8.352 0-18.722 2-23.11 2-.638 0-.928-2-.87-6 0-6.673 5.538-12.082 12.37-12.082 6.832 0 12.37 5.409 12.37 12.082z" mask="url(#b)"/>
            </g>
            <rect width="33" height="5" x="35" y="11" fill="#EAEFF5" rx="2.5"/>
            <g fill="#EAF0F5">
                <path d="M57.5 28h33a1.5 1.5 0 0 1 0 3h-33a1.5 1.5 0 1 1 0-3zM57.5 36.667h33a1.5 1.5 0 0 1 0 3h-33a1.5 1.5 0 1 1 0-3zM57.5 45.333h33a1.5 1.5 0 1 1 0 3h-33a1.5 1.5 0 0 1 0-3zM57.5 54h33a1.5 1.5 0 0 1 0 3h-33a1.5 1.5 0 0 1 0-3z"/>
            </g>
            <path fill="#B3C1EE" d="M47 0h10a2 2 0 0 1 2 2v14H45V2a2 2 0 0 1 2-2z"/>
        </g>
    </g>
</svg>
