<svg xmlns="http://www.w3.org/2000/svg" width="150" height="150" viewBox="0 0 150 150">
    <g fill="none" fill-rule="evenodd">
        <circle cx="75" cy="75" r="75" fill="#D8E2EC"/>
        <path fill="#FFF" d="M98.97 93.91H99V112H53V93.91h.03c.439-6.507 5.624-12.525 15.557-18.056C58.654 70.216 53.47 64.08 53.03 57.445H53V39h46v18.445h-.03c-.439 6.634-5.624 12.77-15.557 18.41 9.933 5.53 15.118 11.548 15.557 18.055z"/>
        <path fill="#EAF0F5" d="M80.143 76a1.863 1.863 0 0 1-1.857 1.869A1.863 1.863 0 0 1 76.429 76v10.59a1.863 1.863 0 0 1-1.858 1.869 1.863 1.863 0 0 1-1.857-1.869V73.69C61.571 68.172 56 62.069 56 55.38V38h39v17.38c0 1.205-.18 2.39-.542 3.558-1.531 4.94-6.303 9.54-14.315 13.798V76zM74.57 95a1.863 1.863 0 0 1-1.857-1.869c0-1.032.832-1.869 1.857-1.869 1.026 0 1.858.837 1.858 1.87A1.863 1.863 0 0 1 74.57 95zM75.398 101c-10.81 6.248-16.94 11.14-18.391 14.675-.599 1.459 37.45 1.823 36.989.536-1.317-3.673-7.516-8.743-18.598-15.211z"/>
        <path fill="#D4DFEA" d="M70.87 45.792a1.392 1.392 0 0 1-1.389-1.396c0-.771.622-1.396 1.39-1.396.766 0 1.388.625 1.388 1.396 0 .77-.622 1.396-1.389 1.396zM64.39 56.028A1.392 1.392 0 0 1 63 54.632c0-.771.622-1.396 1.389-1.396s1.389.625 1.389 1.396c0 .77-.622 1.396-1.39 1.396zM75.5 64.403a1.392 1.392 0 0 1-1.389-1.396c0-.771.622-1.396 1.389-1.396s1.389.625 1.389 1.396c0 .77-.622 1.396-1.389 1.396zm11.111-12.097a1.392 1.392 0 0 1-1.389-1.396c0-.771.622-1.396 1.39-1.396.766 0 1.388.625 1.388 1.396 0 .77-.622 1.396-1.389 1.396zm-7.87 55.833a.928.928 0 0 1-.926-.93c0-.515.414-.931.926-.931.511 0 .926.416.926.93s-.415.93-.926.93zM70.407 110a.928.928 0 0 1-.926-.93c0-.514.415-.931.926-.931.512 0 .926.417.926.93 0 .514-.414.931-.926.931z"/>
        <path fill="#B3C1EE" d="M46.711 31h57.578a3.711 3.711 0 0 1 0 7.423H46.71a3.711 3.711 0 1 1 0-7.423zm57.646 88H46.643A3.641 3.641 0 0 1 43 115.36c0-2.01 1.631-3.64 3.643-3.64h57.714a3.641 3.641 0 0 1 3.643 3.64c0 2.01-1.631 3.64-3.643 3.64z"/>
    </g>
</svg>
