<svg xmlns="http://www.w3.org/2000/svg" width="17" height="17" viewBox="0 0 17 17">
    <g fill="#FFF" fill-rule="nonzero">
        <path d="M10.772 3.05l-.06-.264a.97.97 0 0 0-1.164-.728l-4.294.992h5.518zm-9.93.012l8.48-1.978a1.97 1.97 0 0 1 2.364 1.477l.113.489H15a1 1 0 0 1 1 1v4h-1v3l1 .356v3.644a1 1 0 0 1-1 1H1a1 1 0 0 1-1-1v-11a1 1 0 0 1 .841-.988zM15 8.05v-4H1v11h14v-7z"/>
        <path d="M13.5 8.8a.5.5 0 0 0-.5.5v1a.5.5 0 0 0 .5.5h2a.5.5 0 0 0 .5-.5v-1a.5.5 0 0 0-.5-.5h-2zm0-1h2A1.5 1.5 0 0 1 17 9.3v1a1.5 1.5 0 0 1-1.5 1.5h-2a1.5 1.5 0 0 1-1.5-1.5v-1a1.5 1.5 0 0 1 1.5-1.5z"/>
    </g>
</svg>
