<svg xmlns="http://www.w3.org/2000/svg" width="17" height="17" viewBox="0 0 17 17">
    <g fill="#6E96D2" fill-rule="nonzero">
        <path d="M10.904 3.622l-.193-.836a.97.97 0 0 0-1.163-.728L3.152 3.535m-2.532.06v-.502l8.703-2.009a1.97 1.97 0 0 1 2.363 1.477l.213.922"/>
        <path d="M15 8.05v-4H1v11h14V11.2m0-.15l1 .356v3.644a1 1 0 0 1-1 1H1a1 1 0 0 1-1-1v-11a1 1 0 0 1 1-1h14a1 1 0 0 1 1 1v4h-1"/>
        <path d="M13.5 8.8a.5.5 0 0 0-.5.5v1a.5.5 0 0 0 .5.5h2a.5.5 0 0 0 .5-.5v-1a.5.5 0 0 0-.5-.5h-2zm0-1h2A1.5 1.5 0 0 1 17 9.3v1a1.5 1.5 0 0 1-1.5 1.5h-2a1.5 1.5 0 0 1-1.5-1.5v-1a1.5 1.5 0 0 1 1.5-1.5z"/>
    </g>
</svg>
