<?xml version="1.0" encoding="UTF-8"?>
<svg width="17px" height="17px" viewBox="0 0 17 17" version="1.1" xmlns="http://www.w3.org/2000/svg" xmlns:xlink="http://www.w3.org/1999/xlink">
    <!-- Generator: sketchtool 52.2 (67145) - http://www.bohemiancoding.com/sketch -->
    <title>D602C034-2D30-4923-9F62-CC42A5B9777B</title>
    <desc>Created with sketchtool.</desc>
    <g id="04_voting" stroke="none" stroke-width="1" fill="none" fill-rule="evenodd">
        <g id="03_voting_처음진입" transform="translate(-15.000000, -119.000000)" fill="#FFFFFF" fill-rule="nonzero">
            <g id="navi">
                <g id="navi_voting" transform="translate(0.000000, 105.000000)">
                    <g id="navi/ic/voting" transform="translate(15.000000, 14.000000)">
                        <g id="Group-7" transform="translate(0.000000, 1.000000)">
                            <path d="M5,2.00288116 L5,3 L1,3 L1,15 L15,15 L15,3 L11.2435215,3 L11,2.00288116 M11,2 C11.8888889,2 13.2222222,2 15,2 C15.5522847,2 16,2.44771525 16,3 L16,15 C16,15.5522847 15.5522847,16 15,16 L1,16 C0.44771525,16 1.11022302e-16,15.5522847 0,15 L0,3 C-1.11022302e-16,2.44771525 0.44771525,2 1,2 C2.87439326,2 4.21972163,2 5.0359851,2 C8.41940244,2 10.4074074,2 11,2 Z" id="Rectangle-3-Copy"></path>
                            <path d="M5,1 L5,4.14946209 L11,4.14946209 L11,1 L5,1 Z M4,4.33648773 L4,1 C4,0.44771525 4.44771525,1.11022302e-16 5,0 L11,1.23250394e-13 C11.5522847,1.23139372e-13 12,0.44771525 12,1 L12,4.14946209" id="Rectangle-3-Copy-2"></path>
                            <path d="M3.45454545,5 C3.20350693,5 3,4.77614237 3,4.5 C3,4.22385763 3.20350693,4 3.45454545,4 L12.5454545,4 C12.7964931,4 13,4.22385763 13,4.5 C13,4.77614237 12.7964931,5 12.5454545,5 L3.45454545,5 Z" id="Line"></path>
                            <path d="M10.2310818,7.65404732 C10.4221462,7.45467578 10.738657,7.44794151 10.9380286,7.6390059 C11.1374001,7.83007029 11.1441344,8.14658114 10.95307,8.34595268 L7.87271285,11.5602384 C7.67617,11.7653266 7.34846223,11.7656817 7.15147532,11.56102 L5.58897532,9.93764339 C5.39747926,9.73868644 5.4035275,9.42216173 5.60248445,9.23066566 C5.8014414,9.0391696 6.11796611,9.04521784 6.30946218,9.24417479 L7.5109365,10.4924598 L10.2310818,7.65404732 Z" id="Shape"></path>
                        </g>
                    </g>
                </g>
            </g>
        </g>
    </g>
</svg>