<svg xmlns="http://www.w3.org/2000/svg" width="17" height="17" viewBox="0 0 17 17">
    <g fill="#6E96D2" fill-rule="nonzero">
        <path d="M5 3.003V4H1v12h14V4h-3.756L11 3.003M11 3h4a1 1 0 0 1 1 1v12a1 1 0 0 1-1 1H1a1 1 0 0 1-1-1V4a1 1 0 0 1 1-1h10z"/>
        <path d="M5 2v3.15h6V2H5zM4 5.336V2a1 1 0 0 1 1-1h6a1 1 0 0 1 1 1v3.15"/>
        <path d="M3.455 6C3.204 6 3 5.776 3 5.5s.204-.5.455-.5h9.09c.251 0 .455.224.455.5s-.204.5-.455.5h-9.09zM10.231 8.654a.5.5 0 0 1 .722.692l-3.08 3.214a.5.5 0 0 1-.722.001L5.59 10.938a.5.5 0 0 1 .72-.694l1.202 1.248 2.72-2.838z"/>
    </g>
</svg>
