<svg xmlns="http://www.w3.org/2000/svg" width="17" height="17" viewBox="0 0 17 17">
    <path fill="#FFF" fill-rule="nonzero" stroke="#FFF" stroke-width=".3" d="M8.5 4.34a4.165 4.165 0 0 1 4.16 4.16 4.165 4.165 0 0 1-4.16 4.16A4.165 4.165 0 0 1 4.34 8.5 4.165 4.165 0 0 1 8.5 4.34zm0 7.726A3.57 3.57 0 0 0 12.066 8.5 3.57 3.57 0 0 0 8.5 4.934 3.57 3.57 0 0 0 4.934 8.5 3.57 3.57 0 0 0 8.5 12.066zm7.176-5.344c.454 0 .824.37.824.824v1.908c0 .454-.37.824-.824.824h-.598a6.78 6.78 0 0 1-.67 1.616l.423.423a.82.82 0 0 1 .241.582c0 .22-.085.428-.24.583l-1.35 1.35a.844.844 0 0 1-1.165 0l-.423-.423a6.768 6.768 0 0 1-1.616.67v.597c0 .455-.37.824-.824.824H7.546a.825.825 0 0 1-.824-.824v-.598a6.78 6.78 0 0 1-1.616-.67l-.423.423a.843.843 0 0 1-1.165 0l-1.35-1.349a.82.82 0 0 1-.24-.583c0-.22.085-.426.24-.582l.423-.423a6.768 6.768 0 0 1-.67-1.616h-.597A.825.825 0 0 1 .5 9.454V7.546c0-.454.37-.824.824-.824h.598a6.745 6.745 0 0 1 .669-1.616l-.423-.423a.82.82 0 0 1-.24-.582c0-.22.085-.428.24-.583l1.35-1.35a.844.844 0 0 1 1.165 0l.422.423a6.768 6.768 0 0 1 1.617-.67v-.597c0-.455.37-.824.824-.824h1.908c.454 0 .824.37.824.824v.598a6.772 6.772 0 0 1 1.616.669l.423-.423a.844.844 0 0 1 1.165 0l1.349 1.35a.82.82 0 0 1 .241.582c0 .22-.085.427-.241.583l-.423.422c.293.508.518 1.05.67 1.617h.598zm.231 2.732V7.546a.231.231 0 0 0-.231-.231h-1.064l-.054-.23a6.168 6.168 0 0 0-.774-1.87l-.124-.199.752-.752a.231.231 0 0 0 0-.327l-1.349-1.35a.231.231 0 0 0-.327 0l-.752.753-.2-.124a6.188 6.188 0 0 0-1.87-.775l-.229-.053V1.324a.231.231 0 0 0-.231-.231H7.546a.231.231 0 0 0-.231.23v1.065l-.23.053a6.174 6.174 0 0 0-1.87.775l-.199.124-.752-.752a.231.231 0 0 0-.327 0l-1.35 1.349a.231.231 0 0 0 0 .327l.753.752-.124.2a6.182 6.182 0 0 0-.775 1.87l-.053.229H1.324a.231.231 0 0 0-.231.23v1.909c0 .127.103.231.23.231h1.065l.053.229c.154.663.415 1.292.775 1.87l.124.2-.752.752a.231.231 0 0 0 0 .327l1.349 1.349c.09.09.236.09.327 0l.752-.752.2.124c.578.36 1.207.62 1.87.774l.229.054v1.064c0 .127.103.231.23.231h1.909a.231.231 0 0 0 .231-.231v-1.064l.229-.054a6.174 6.174 0 0 0 1.87-.774l.2-.124.752.752c.09.09.237.09.327 0l1.349-1.349a.231.231 0 0 0 0-.327l-.752-.752.124-.2c.36-.578.62-1.207.774-1.87l.054-.229h1.064a.231.231 0 0 0 .231-.231z"/>
</svg>
