<svg xmlns="http://www.w3.org/2000/svg" width="154" height="159" viewBox="0 0 154 159">
    <g fill="none" fill-rule="evenodd" transform="translate(-1 -2)">
        <path fill="#B3C1EE" d="M7.315 50.314h95.46l-9.244 98.198a5 5 0 0 1-4.978 4.531H21.079a5 5 0 0 1-4.98-4.554L7.315 50.314z"/>
        <g fill="#CBD6F9" transform="translate(32.522 85.738)">
            <path d="M2.657 0a2.793 2.793 0 0 1 2.79 2.653l1.505 30.118a2.527 2.527 0 0 1-2.524 2.653 2.793 2.793 0 0 1-2.79-2.653L.134 2.653A2.527 2.527 0 0 1 2.657 0zM41.623 0a2.527 2.527 0 0 1 2.524 2.653l-1.505 30.118a2.793 2.793 0 0 1-2.79 2.653 2.527 2.527 0 0 1-2.524-2.653l1.506-30.118A2.793 2.793 0 0 1 41.624 0z"/>
            <rect width="5.314" height="35.424" x="19.483" rx="2.657"/>
        </g>
        <rect width="108.043" height="13.147" x="1" y="45" fill="#9CABDD" rx="6.573"/>
        <rect width="99.043" height="11.147" x="-3.507" y="23.503" fill="#9CABDD" rx="5.573" transform="rotate(-29 46.015 29.076)"/>
        <g transform="translate(69.913 107.457)">
            <rect width="85" height="52.602" fill="#E3EDF7" rx="2"/>
            <path fill="#D9E5F0" d="M0 48.157h85v2.445a2 2 0 0 1-2 2H2a2 2 0 0 1-2-2v-2.445z"/>
            <path fill="#B3C1EE" d="M47.826 31.393v-1.576h3.605v1.727c0 1.778-.67 3.03-2.007 3.754-1.338.727-3.519 1.09-6.54 1.09H34V20.913h8.108v-.005h3.107v2.52h-7.609v4.31h-.001V33.871h5.278c1.808 0 3.085-.187 3.828-.563.743-.375 1.115-1.013 1.115-1.915zm1.598-18.09c1.339.725 2.007 1.976 2.007 3.754v6.352c0 1.778-.668 3.028-2.007 3.754-1.338.727-3.519 1.088-6.541 1.088h-2.807v-2.515h2.807c1.809 0 3.084-.188 3.828-.563.743-.375 1.115-1.013 1.115-1.915v-6.051c0-.902-.372-1.538-1.115-1.914-.744-.377-2.02-.563-3.828-.563h-5.278v4.12H34v-6.635h8.883c3.022 0 5.204.362 6.541 1.088z"/>
        </g>
        <circle cx="42" cy="26.193" r="7" fill="#9CABDD"/>
    </g>
</svg>
