<svg xmlns="http://www.w3.org/2000/svg" xmlns:xlink="http://www.w3.org/1999/xlink" width="150" height="150" viewBox="0 0 150 150">
    <defs>
        <path id="a" d="M2.564 0H32.64c.892 0 1.215.093 1.54.267.327.174.582.43.757.756.174.326.267.65.267 1.54V31.69c0 .891-.093 1.214-.267 1.54-.175.326-.43.582-.756.756-.326.175-.65.267-1.541.267H2.564c-.892 0-1.215-.092-1.54-.267a1.817 1.817 0 0 1-.757-.756C.093 32.903 0 32.58 0 31.69V2.564c0-.892.093-1.215.267-1.54.174-.327.43-.583.756-.757C1.35.093 1.673 0 2.563 0z"/>
    </defs>
    <g fill="none" fill-rule="evenodd" transform="translate(-440 -216)">
        <path fill="#FFF" d="M0 0h872v675H0z"/>
        <path d="M0 0h872v674H0z"/>
        <path fill="#FFF" d="M158.89 0h711a2 2 0 0 1 2 2v673a2 2 0 0 1-2 2h-711a2 2 0 0 1-2-2V2a2 2 0 0 1 2-2z"/>
        <path fill="#EAEFF5" d="M158 105h714v571H158z"/>
        <path fill="#FFF" d="M188 126.991c0-1.1.893-1.991 1.994-1.991h650.012c1.101 0 1.994.898 1.994 1.991V644.01c0 1.1-.893 1.991-1.994 1.991H189.994a1.997 1.997 0 0 1-1.994-1.991V126.99z"/>
        <circle cx="515" cy="291" r="75" fill="#DBE6F2"/>
        <g transform="translate(466 257)">
            <path fill="#FFF" d="M95.509 4A2.493 2.493 0 0 1 98 6.495v58.757a2.493 2.493 0 0 1-2.491 2.496H2.49A2.493 2.493 0 0 1 0 65.252V6.495A2.493 2.493 0 0 1 2.491 4H95.51z"/>
            <g transform="translate(10.466 22.835)">
                <mask id="b" fill="#fff">
                    <use xlink:href="#a"/>
                </mask>
                <use fill="#EAF0F5" xlink:href="#a"/>
                <path fill="#B3C1EE" stroke="#B3C1EE" stroke-linecap="round" stroke-linejoin="round" stroke-width="2" d="M17.602 22.55c-3.091 0-5.597-2.442-5.597-5.454 0-3.011 2.506-5.453 5.597-5.453 3.091 0 5.597 2.442 5.597 5.453 0 3.012-2.506 5.453-5.597 5.453zm11.77 12.428c.086 2.537-.155 3.806-.725 3.806-7.945 0-17.811 1.903-21.987 1.903-.607 0-.883-1.903-.828-5.709 0-6.349 5.27-11.495 11.77-11.495s11.77 5.146 11.77 11.495z" mask="url(#b)"/>
            </g>
            <rect width="31.398" height="4.757" x="33.301" y="10.466" fill="#EAEFF5" rx="2.379"/>
            <g fill="#EAF0F5">
                <path d="M54.709 26.64h31.398a1.427 1.427 0 1 1 0 2.854l-31.398.001a1.427 1.427 0 0 1 0-2.854zM54.709 34.887h31.398a1.427 1.427 0 0 1 0 2.854H54.709a1.427 1.427 0 0 1 0-2.854zM54.709 43.133h31.398a1.427 1.427 0 0 1 0 2.854H54.709a1.427 1.427 0 1 1 0-2.854zM54.709 51.379h31.398a1.427 1.427 0 0 1 0 2.854H54.709a1.427 1.427 0 1 1 0-2.854z"/>
            </g>
            <path fill="#B3C1EE" d="M44.816 0h9.32a2 2 0 0 1 2 2v13.223h-13.32V2a2 2 0 0 1 2-2z"/>
        </g>
    </g>
</svg>
