<svg xmlns="http://www.w3.org/2000/svg" xmlns:xlink="http://www.w3.org/1999/xlink" width="233" height="140" viewBox="0 0 233 140">
    <defs>
        <path id="a" d="M15.18 47.85c-.941-7.36-1.019-20.155-1.993-27.63a7.575 7.575 0 0 0-.323 1.688c-.492 6.523-1.247 15.994-2.104 21.978l.013-.003L9.54 54.87c-1.81 1.641-3.97 1.709-6.48.202l-.985-7.675a90.5 90.5 0 0 1-.229-1.77c-.244-2.028-.45-4.19-.638-6.064C.17 29.241.296 12.195.637 5.05 1.009-2.75 8.966 1.475 14.102 6.41c1.342-1.021 3.168-1.846 5.461-2.498 4.043-1.149 5.599-2.882 6.292-.455.393 1.374.686 6.14.603 10.506-.142 7.486-1.395 21.32-2.33 30.205l.083-.026-1.38 11.085c-1.81 1.642-4.153 1.551-7.03-.273l-.62-7.105z"/>
        <linearGradient id="c" x1="35.279%" x2="64.598%" y1="40.091%" y2="71.675%">
            <stop offset="0%" stop-color="#E0B036"/>
            <stop offset="59.179%" stop-color="#ECC35C"/>
            <stop offset="100%" stop-color="#EFC761"/>
        </linearGradient>
        <linearGradient id="d" x1="25.496%" x2="128.288%" y1="63.434%" y2="63.434%">
            <stop offset="0%" stop-color="#B68777"/>
            <stop offset="100%" stop-color="#97614E"/>
        </linearGradient>
        <linearGradient id="e" x1="35.279%" x2="63.652%" y1="40.091%" y2="65.191%">
            <stop offset="0%" stop-color="#E0B036"/>
            <stop offset="66.942%" stop-color="#EFC761"/>
            <stop offset="100%" stop-color="#ECC45D"/>
        </linearGradient>
    </defs>
    <g fill="none" fill-rule="evenodd" transform="translate(-1)">
        <path fill="#63737B" d="M201.26 128.77a527.062 527.062 0 0 0-1.482 4.237c-.636 1.845 3.766 1.84 5.315 1.536 1.032-.203 1.549-2.127 1.549-5.774h-5.381zM219.082 128.77a.405.405 0 0 0 0 .152c.259 1.166.625 2.484 1.012 3.873.612 2.199-3.295 2.051-4.844 1.748-1.033-.203-1.55-2.127-1.55-5.774h5.382z"/>
        <g transform="translate(197.494 74.612)">
            <mask id="b" fill="#fff">
                <use xlink:href="#a"/>
            </mask>
            <use fill="#719FB8" xlink:href="#a"/>
            <path fill="#608BA3" d="M5.867 5.994c-.854 2.06-2.607 3.614-5.26 4.662-2.654 1.048-3.666-.6-3.037-4.944l3.87-2.81 4.427 3.092z" mask="url(#b)"/>
            <path fill="#608BA3" d="M29.052 5.994c-.853 2.06-2.607 3.614-5.26 4.662-2.654 1.048-3.666-.6-3.037-4.944l3.87-2.81 4.427 3.092z" mask="url(#b)" transform="matrix(-1 0 0 1 49.627 0)"/>
        </g>
        <path fill="#EFC761" d="M197.524 60.695c0 6.767.2 13.1.599 18.999 7.409 3.617 15.905 3.617 25.49 0 2.027-7.52 1.973-13.353-.163-17.496-2.135-4.143-3.385-10.59-3.749-19.34-5.965 1.601-11.848 1.651-17.647.15-8.7-2.252-4.53 7.535-4.53 17.687z"/>
        <path fill="#EFC761" d="M198.79 42.526c8.092-.516 17.55 10.372 23.509 17.137 5.958 6.765-17.809-.083-22.836 9.776-3.21 6.294-12.385-1.874-11.54-8.263.023-.169.064-.428.123-.777 2.922-11.368 5.35-17.528 10.745-17.873z"/>
        <path fill="#EFC761" d="M222.685 42.526c-8.09-.516-17.55 10.372-23.508 17.137-5.958 6.765 17.809-.083 22.836 9.776 3.21 6.294 12.385-1.874 11.54-8.263a23.45 23.45 0 0 0-.123-.777c-2.922-11.368-5.35-17.528-10.745-17.873z"/>
        <path fill="url(#c)" d="M212.786 71.334c2.792-1.731 4.82-4.296 6.083-7.696 1.014-2.729 5.03-3.374 6.099.46.175.63-.093 2.324-.804 5.084-2.935 6.854-7.008 8.853-12.219 5.998-.144-.959-.24-1.617-.286-1.975-.12-.927-.131-1.506-.117-1.503.29.062.705-.061 1.244-.368z" transform="matrix(-1 0 0 1 436.557 0)"/>
        <path fill="#B68777" d="M210.769 25.832c3.02-.996 4.956-1.573 5.806-1.73 1.81-.333 4.08 4.379 4.208 4.815 1.142 3.878-1.387 8.402-2.331 11.077-1.093 3.098-1.32 4.365-3.374 5.534-1.059 1.22-2.495 1.72-4.31 1.502-1.813.219-3.25-.282-4.31-1.502-2.053-1.169-2.28-2.436-3.373-5.534-.944-2.675-3.473-7.2-2.33-11.077.128-.436 2.398-5.148 4.207-4.814.85.156 2.785.733 5.807 1.73z"/>
        <path fill="#B68777" d="M218.68 36.926c.904-.73 2.186-1.031 2.386.292.117.77-.146 2.009-1.056 2.629-.655.446-1.891.495-2.407.173-1.231-.77.174-2.363 1.077-3.094zM203.426 36.926c-.903-.73-2.185-1.031-2.385.292-.117.77.146 2.009 1.055 2.629.655.446 1.892.495 2.407.173 1.232-.77-.173-2.363-1.077-3.094z"/>
        <path fill="#805656" d="M210.216 41.533c-1.842-.005-2.832.524-2.968 1.586-.205 1.593 3.71 0 3.71-.793 0-.529-.247-.793-.742-.793z"/>
        <path fill="#805656" d="M211.228 41.533c1.843-.005 2.832.524 2.969 1.586.204 1.593-3.71 0-3.71-.793 0-.529.247-.793.741-.793z"/>
        <path fill="url(#d)" d="M10.805 15.855c.875.633 1.312 1.223 1.312 1.77 0 .549-.497 1.015-1.49 1.4l-.364-1.879.364-1.291h.178z" transform="scale(-1 1) rotate(87 -112.222 -87.656)"/>
        <path fill="#805656" d="M208.864 30.623c-1.26 2.648-.927 3.972 1 3.972 2.893 0 5.562-2.93 5.692-4.686.129-1.756-3.772-3.263-5.117-3.12-.896.096-1.421 1.374-1.575 3.834z"/>
        <path fill="#805656" d="M203.563 30.623c-1.262 2.648-.928 3.972 1 3.972 2.892 0 5.562-2.93 5.69-4.686.13-1.756-3.77-3.263-5.115-3.12-.897.096-1.422 1.374-1.575 3.834zM214.348 30.623c-1.26 2.648-.927 3.972 1 3.972 2.893 0 5.562-2.93 5.692-4.686.129-1.756-3.772-3.263-5.117-3.12-.896.096-1.421 1.374-1.575 3.834z"/>
        <path fill="#805656" d="M203.379 33.394c.48 1.901.398 3.342-.246 4.322-.645.98-1.371-.02-2.18-3.004-1.278-5.463-.874-8.194 1.213-8.194s3.805.717 5.154 2.153l-3.941 4.723zM218.274 33.394c-.554 1.94-.502 3.325.154 4.152.656.828 1.413-.117 2.271-2.834 1.279-5.463.874-8.194-1.213-8.194-2.086 0-3.804.717-5.153 2.153l3.94 4.723z"/>
        <path fill="#805656" d="M200.341 28.378c.915-4.88 4.449-7.32 10.6-7.32 6.15 0 9.629 2.57 10.433 7.708l-21.033-.388z"/>
        <path fill="url(#e)" d="M197.705 71.334c2.792-1.731 4.82-4.296 6.083-7.696 1.014-2.729 5.03-3.374 6.099.46.175.63-.093 2.324-.804 5.084-2.29 6.558-6.042 8.41-11.252 5.555l-.126-3.403z"/>
        <rect width="14.671" height="3.386" x="173.795" y="81.383" fill="#A6A6A6" rx="1.693"/>
        <path fill="#A6A6A6" d="M185.08 82.64V59.812a1 1 0 0 1 1-1h1.386a1 1 0 0 1 1 1V82.64a1 1 0 0 1-1 1h-1.386a1 1 0 0 1-1-1z"/>
        <rect width="11.285" height="3.386" x="185.08" y="58.812" fill="#A6A6A6" rx="1.693"/>
        <rect width="31.599" height="7.9" x="195.237" y="56.555" fill="#AB9061" rx="2"/>
        <g transform="translate(.961 .092)">
            <rect width="155.237" height="63.56" x="9.153" fill="#E2ECF7" rx="2"/>
            <g fill="#E2ECF7" transform="translate(7.627 106.923)">
                <path d="M17.738 32.884c1.925-11.054 2.593-17.512 1.568-31.788-.027-.605.275-1.072.976-1.095L19.06 0h7.577c.702 0 2.724.49 2.724 1.096.445 16.134-.243 26.73-2.064 31.788M143.348 32.884c-1.926-11.054-2.594-17.512-1.568-31.788.027-.605.996-1.072.295-1.095l-.05-.001h-7.576c-.702 0-3.015.49-3.015 1.096-.125 16.134.722 26.73 2.543 31.788M158.646 32.884c-2.624-7.566-1.372-19.608-2.576-31.666.078-.602-.424-1.144-1.122-1.211a1.472 1.472 0 0 0-.141-.007h-7.536c-.678 0-1.327.471-1.27 1.042 1.27 12.601.13 23.487 2.606 31.842h10.039z"/>
                <rect width="10.17" height="32.884" x="35.339" rx="1"/>
                <rect width="10.17" height="32.884" x="51.356" rx="1"/>
                <rect width="10.17" height="32.884" x="67.882" rx="1"/>
                <path d="M.573 32.884c2.623-7.566 1.372-19.608 2.575-31.666C3.07.616 3.573.074 4.27.007 4.317.002 4.364 0 4.411 0h7.536c.678 0 1.327.471 1.27 1.042-1.27 12.601-.13 23.487-2.605 31.842H.572z"/>
                <rect width="10.17" height="32.884" x="83.391" rx="1"/>
                <rect width="10.17" height="32.884" x="99.408" rx="1"/>
                <rect width="10.17" height="32.884" x="115.425" rx="1"/>
            </g>
            <g transform="translate(0 52.12)">
                <path fill="#97A6D6" d="M2.508 0h169.646a2 2 0 0 1 2 2v50.289c0 5.523-4.477 10-10 10H10.508c-5.522 0-10-4.477-10-10V2a2 2 0 0 1 2-2z"/>
                <circle cx="13.285" cy="9.924" r="1.907" fill="#7383B6"/>
                <circle cx="162.078" cy="9.924" r="1.907" fill="#7383B6"/>
                <circle cx="13.285" cy="51.873" r="1.907" fill="#7383B6"/>
                <circle cx="162.078" cy="51.873" r="1.907" fill="#7383B6"/>
                <path fill="#CBD6F8" d="M92.922 36.587v-1.493h3.943v1.635c0 1.683-.732 2.868-2.195 3.554-1.464.688-3.85 1.031-7.155 1.031h-9.717V26.667h8.868v-.005h3.399v2.386h-8.323v4.08h-.001v5.804h5.774c1.977 0 3.374-.177 4.187-.533.813-.355 1.22-.959 1.22-1.812zm1.748-17.124c1.464.687 2.195 1.87 2.195 3.553v6.013c0 1.682-.731 2.866-2.195 3.553-1.464.688-3.85 1.03-7.156 1.03H84.444v-2.38H87.513c1.979 0 3.375-.178 4.187-.534.813-.355 1.22-.958 1.22-1.812V23.16c0-.854-.407-1.457-1.22-1.812-.812-.357-2.208-.533-4.187-.533h-5.773v3.9h-3.944v-6.282h9.717c3.306 0 5.693.344 7.156 1.03z"/>
            </g>
        </g>
        <path fill="#A17161" d="M215.528 57.084c1.671 1.742 3.186 2.22 4.546 1.436 1.359-.785 2.323-1.341 2.89-1.67-.68-.686-2.027-1.14-4.043-1.36-2.015-.22-3.147.311-3.393 1.594zM205.686 57.084c-1.671 1.742-3.186 2.22-4.546 1.436l-2.89-1.67c.19-.77 1.293-1.267 3.309-1.487 2.016-.22 3.392.354 4.127 1.721z"/>
    </g>
</svg>
