<svg xmlns="http://www.w3.org/2000/svg" width="106" height="106" viewBox="0 0 106 106">
    <g fill="none" fill-rule="evenodd">
        <path fill="#BDCDDD" d="M57.18 60.78h-7.14l-1.5-28.62h10.14l-1.5 28.62zM48.42 70.8c0-1.84.5-3.13 1.5-3.87 1-.74 2.22-1.11 3.66-1.11 1.4 0 2.6.37 3.6 1.11 1 .74 1.5 2.03 1.5 3.87 0 1.76-.5 3.03-1.5 3.81-1 .78-2.2 1.17-3.6 1.17-1.44 0-2.66-.39-3.66-1.17-1-.78-1.5-2.05-1.5-3.81z"/>
        <circle cx="53" cy="53" r="50" stroke="#BDCDDD" stroke-width="5"/>
    </g>
</svg>
